<?xml version="1.0" standalone="no"?>
<!DOCTYPE svg PUBLIC "-//W3C//DTD SVG 20010904//EN"
 "http://www.w3.org/TR/2001/REC-SVG-20010904/DTD/svg10.dtd">
<svg version="1.0" xmlns="http://www.w3.org/2000/svg"
 width="1600.000000pt" height="1600.000000pt" viewBox="0 0 1600.000000 1600.000000"
 preserveAspectRatio="xMidYMid meet">
<metadata>
Created by potrace 1.14, written by Peter Selinger 2001-2017
</metadata>
<g transform="translate(0.000000,1600.000000) scale(0.100000,-0.100000)"
fill="#000000" stroke="none">
<path d="M7648 15995 c-1 -1 -59 -6 -128 -9 -136 -7 -179 -10 -285 -21 -38 -4
-88 -8 -110 -10 -78 -7 -151 -16 -205 -25 -30 -5 -78 -12 -106 -15 -28 -3 -61
-8 -75 -10 -13 -3 -44 -8 -69 -11 -25 -3 -47 -8 -50 -9 -3 -2 -26 -6 -50 -10
-52 -8 -196 -36 -325 -64 -92 -19 -426 -106 -525 -135 -30 -9 -62 -19 -71 -21
-110 -25 -697 -241 -856 -315 -36 -17 -89 -40 -117 -52 -142 -60 -739 -373
-791 -415 -6 -4 -26 -17 -45 -27 -143 -79 -614 -402 -755 -517 -11 -9 -69 -56
-130 -105 -228 -182 -384 -324 -640 -579 -528 -527 -988 -1139 -1352 -1800
-59 -106 -233 -450 -233 -459 0 -2 -18 -42 -39 -88 -38 -80 -131 -295 -131
-302 0 -2 -8 -21 -17 -42 -43 -101 -164 -447 -218 -623 -49 -164 -136 -495
-161 -616 -9 -44 -18 -89 -21 -100 -2 -11 -6 -31 -9 -45 -2 -14 -9 -47 -14
-75 -11 -58 -16 -88 -30 -170 -5 -33 -12 -71 -15 -84 -2 -13 -7 -49 -10 -80
-4 -31 -8 -63 -10 -71 -2 -8 -7 -40 -10 -70 -3 -30 -8 -66 -10 -80 -2 -14 -7
-54 -10 -89 -4 -35 -11 -98 -15 -140 -9 -82 -7 -1433 2 -1466 3 -11 9 -51 12
-90 4 -38 9 -81 11 -95 2 -14 6 -45 9 -70 13 -108 18 -142 36 -255 27 -164 26
-161 61 -335 60 -302 148 -630 254 -945 351 -1046 904 -1990 1659 -2830 269
-299 714 -713 996 -925 18 -14 47 -36 65 -50 267 -209 659 -467 987 -648 282
-156 575 -297 853 -408 88 -36 169 -69 180 -74 151 -68 808 -268 1035 -315 8
-2 69 -14 135 -28 66 -14 136 -29 155 -32 19 -3 42 -8 50 -10 8 -2 33 -6 55
-10 22 -3 47 -7 55 -10 15 -4 48 -9 135 -21 48 -6 60 -8 115 -18 22 -5 50 -8
180 -21 19 -2 53 -6 75 -9 75 -10 179 -19 382 -33 222 -15 1003 -7 1115 12 13
2 62 6 109 10 47 3 95 7 105 9 10 2 46 7 79 10 33 3 76 9 95 11 19 3 49 7 65
10 17 2 48 6 70 10 22 3 54 8 70 10 17 3 41 7 55 9 14 3 43 7 65 10 212 31
679 142 975 231 269 82 675 231 857 315 35 17 66 30 68 30 6 0 241 112 350
167 214 108 527 287 705 403 41 27 85 55 97 62 93 54 596 425 664 490 8 7 52
45 99 84 268 225 593 543 831 814 255 291 502 614 697 915 72 110 222 354 222
361 0 2 16 28 35 58 19 30 35 57 35 59 0 3 20 41 45 86 107 194 234 458 332
691 35 85 71 169 78 185 40 93 173 478 228 665 61 203 168 648 192 800 7 46
17 100 22 125 2 11 6 36 9 55 3 19 9 60 14 90 24 149 56 422 66 580 27 385 26
939 -1 1260 -18 204 -45 446 -60 530 -5 29 -11 68 -20 125 -3 23 -8 52 -10 65
-3 14 -7 36 -9 50 -8 48 -20 115 -21 120 -1 4 -10 48 -21 100 -108 548 -336
1231 -586 1760 -70 148 -202 406 -256 500 -73 129 -95 166 -152 260 -139 231
-444 669 -582 835 -131 159 -237 284 -253 301 -11 12 -56 61 -100 110 -174
194 -485 495 -700 678 -44 38 -91 78 -105 90 -64 55 -234 187 -363 281 -78 58
-147 109 -152 113 -29 24 -345 228 -455 294 -615 369 -1245 644 -1915 837
-190 54 -455 120 -595 147 -97 19 -342 63 -375 67 -22 3 -69 10 -105 16 -36 5
-90 13 -120 16 -30 3 -66 8 -80 10 -14 2 -52 7 -85 10 -33 3 -76 8 -95 10 -19
2 -80 7 -135 10 -55 4 -116 9 -135 11 -41 5 -816 14 -822 9z m687 -2046 c-4
-5 -1 -9 6 -9 9 0 9 -3 0 -14 -8 -10 -9 -16 -1 -21 6 -3 7 -12 3 -18 -13 -22
-12 -39 3 -33 11 4 11 0 -2 -19 -15 -23 -15 -25 2 -25 17 0 16 -1 -2 -15 -13
-10 -14 -14 -5 -15 10 0 11 -3 2 -14 -9 -11 -9 -15 0 -18 8 -3 9 -9 4 -19 -15
-23 -15 -41 1 -35 11 4 11 0 -2 -19 -15 -23 -15 -25 2 -25 17 0 16 -1 -2 -15
-13 -10 -14 -14 -5 -15 10 0 11 -3 2 -14 -9 -11 -9 -15 0 -18 8 -3 9 -9 4 -19
-15 -23 -15 -41 1 -35 11 4 11 0 -2 -19 -15 -23 -15 -25 2 -25 17 0 16 -1 -2
-15 -13 -10 -14 -14 -5 -15 10 0 11 -3 2 -14 -9 -11 -9 -15 0 -18 8 -3 9 -9 4
-19 -15 -23 -15 -41 1 -35 11 4 11 0 -2 -19 -15 -23 -15 -25 2 -25 17 0 16 -1
-2 -15 -13 -10 -14 -14 -5 -15 10 0 11 -3 2 -14 -9 -11 -9 -15 0 -18 8 -3 9
-9 4 -19 -15 -23 -15 -41 1 -35 11 4 11 0 -2 -19 -15 -23 -15 -25 2 -25 17 0
16 -1 -2 -15 -13 -10 -14 -14 -5 -15 10 0 11 -3 2 -14 -9 -11 -9 -15 0 -18 8
-3 9 -9 4 -19 -15 -23 -15 -41 1 -35 11 4 11 0 -2 -19 -15 -23 -15 -25 2 -25
17 0 16 -1 -2 -15 -10 -8 -13 -15 -7 -15 9 0 10 -7 3 -25 -6 -17 -6 -25 1 -25
6 0 7 -5 4 -10 -10 -15 37 -29 59 -18 16 9 18 7 12 -7 -6 -17 -5 -17 20 0 15
9 23 12 20 6 -4 -6 -3 -11 3 -11 5 0 12 4 16 10 4 6 15 6 30 0 14 -5 25 -7 25
-4 0 4 8 0 17 -7 14 -12 16 -12 8 0 -6 11 -4 13 7 8 9 -3 21 0 28 6 9 8 11 8
7 1 -4 -7 3 -11 18 -11 16 0 22 4 18 11 -4 6 0 5 9 -2 13 -10 17 -10 21 0 3 8
6 6 6 -5 1 -10 5 -16 10 -13 16 11 19 -18 3 -36 -8 -10 -10 -18 -4 -18 11 0
11 -25 -1 -36 -4 -4 -2 -14 5 -21 9 -11 9 -17 -3 -24 -10 -6 -10 -9 -2 -9 14
0 13 -26 -1 -49 -6 -10 -5 -12 2 -7 16 10 15 -7 0 -23 -10 -11 -10 -13 0 -7 7
5 12 1 12 -9 0 -10 -5 -14 -12 -9 -10 5 -10 4 -1 -6 10 -11 10 -17 0 -29 -10
-12 -9 -13 2 -7 9 6 12 5 9 -5 -3 -8 -1 -22 4 -31 7 -14 14 -15 33 -8 18 7 25
6 26 -3 0 -9 2 -9 5 0 3 7 12 9 20 6 8 -3 22 1 31 8 9 8 14 9 10 3 -11 -19 19
-24 44 -7 14 11 19 12 14 3 -6 -10 -2 -11 19 -6 18 4 25 3 21 -4 -3 -5 -1 -10
4 -10 6 0 11 8 11 18 0 10 3 13 8 6 10 -15 45 -27 36 -12 -5 8 -2 9 9 5 10 -4
17 -1 18 6 0 9 2 9 6 -1 2 -6 10 -9 16 -6 8 5 8 3 0 -6 -10 -11 -9 -16 5 -27
16 -14 16 -14 -1 -9 -13 4 -16 2 -10 -7 13 -20 12 -168 -1 -160 -6 4 -3 -3 7
-14 13 -14 15 -23 7 -28 -8 -5 -7 -11 2 -23 10 -12 10 -14 1 -8 -8 4 -13 1
-13 -9 0 -9 4 -14 9 -11 5 4 7 -3 4 -14 -3 -11 -10 -17 -17 -13 -8 5 -8 3 0
-8 6 -8 11 -39 11 -70 0 -31 4 -62 8 -69 6 -10 4 -12 -8 -7 -11 4 -14 2 -10
-8 3 -8 10 -12 17 -8 7 4 7 1 -1 -7 -10 -11 -10 -17 0 -29 9 -12 9 -13 0 -7
-8 4 -13 1 -13 -9 0 -10 5 -13 13 -9 6 4 4 -2 -6 -13 -18 -21 -13 -58 7 -46 8
4 8 2 -1 -7 -6 -7 -9 -19 -6 -26 3 -8 -1 -22 -8 -31 -12 -15 -12 -16 5 -10 16
6 17 5 7 -7 -9 -11 -9 -16 0 -22 8 -4 9 -3 5 4 -4 7 -3 12 2 12 6 0 13 -8 17
-17 6 -17 7 -17 20 0 10 13 14 15 18 5 4 -10 7 -10 18 -1 9 10 16 10 27 1 10
-9 16 -8 23 3 6 10 9 10 9 2 0 -7 7 -13 15 -13 8 0 15 6 15 13 0 8 3 8 9 -2 8
-13 12 -13 27 0 16 13 17 12 10 -6 -6 -16 -5 -18 5 -7 15 14 33 16 24 2 -3 -6
1 -7 9 -4 9 3 13 11 10 16 -4 6 4 4 17 -4 13 -8 33 -14 44 -13 15 2 20 -4 20
-21 0 -13 -3 -24 -6 -24 -4 0 -10 -7 -13 -16 -5 -13 -3 -14 7 -6 10 8 12 3 11
-27 0 -21 -4 -43 -8 -49 -4 -7 -1 -12 6 -13 10 0 10 -2 -1 -6 -11 -5 -11 -7 0
-14 12 -7 12 -9 0 -9 -11 0 -10 -5 4 -20 18 -20 18 -21 -3 -27 -12 -3 -19 -9
-16 -14 3 -5 10 -7 15 -4 5 4 5 -3 0 -18 -6 -16 -6 -28 2 -36 6 -6 7 -11 2
-11 -13 0 -13 -153 0 -162 6 -4 2 -8 -8 -8 -17 0 -17 -1 -1 -17 12 -12 13 -18
4 -21 -9 -3 -9 -6 1 -13 11 -7 9 -9 -6 -9 -15 0 -16 -3 -7 -9 17 -10 22 -41
11 -62 -5 -10 -3 -21 3 -27 9 -9 9 -12 0 -12 -10 0 -10 -5 -2 -20 9 -16 8 -20
-7 -20 -15 0 -15 -2 3 -15 11 -8 14 -15 7 -15 -7 0 -13 -5 -13 -11 0 -5 4 -8
8 -5 4 2 7 -7 6 -21 0 -13 -7 -29 -15 -34 -11 -7 -11 -9 0 -9 7 0 11 -6 7 -15
-3 -8 0 -15 7 -15 8 0 8 -3 -2 -9 -10 -6 -10 -10 -1 -16 8 -5 6 -11 -7 -22
-10 -8 -12 -12 -6 -8 9 4 12 -3 10 -27 -2 -18 1 -39 6 -45 6 -9 6 -13 -2 -13
-9 0 -9 -5 -1 -20 9 -16 8 -20 -7 -20 -15 0 -15 -2 3 -15 11 -8 14 -15 7 -15
-7 0 -13 -5 -13 -11 0 -5 4 -8 8 -5 4 2 7 -7 6 -21 0 -13 -7 -29 -15 -34 -11
-7 -11 -9 0 -9 7 0 11 -6 7 -15 -3 -8 0 -15 7 -15 8 0 8 -3 -2 -9 -10 -6 -10
-10 -1 -16 8 -5 6 -11 -7 -22 -10 -8 -13 -12 -7 -9 8 4 12 -8 12 -34 1 -29 -3
-38 -11 -33 -7 4 -6 0 2 -10 7 -9 11 -24 7 -32 -4 -11 -2 -14 7 -9 9 5 9 4 1
-5 -13 -14 -7 -61 8 -61 5 0 19 5 31 12 19 9 20 9 10 -3 -9 -11 -7 -14 13 -14
13 0 24 3 24 7 0 9 63 4 79 -6 6 -4 11 -3 11 2 0 6 7 13 16 16 13 5 14 3 6 -6
-8 -10 -2 -13 28 -13 21 0 36 3 34 6 -2 4 5 9 17 12 15 4 17 2 10 -6 -7 -9 -2
-12 15 -12 13 0 24 3 24 6 0 7 63 2 88 -6 7 -3 11 -1 8 4 -3 5 3 11 15 14 15
4 17 2 10 -6 -7 -9 -2 -12 15 -12 13 0 24 2 24 6 0 7 64 4 77 -4 6 -4 18 -1
26 8 13 13 16 13 21 0 3 -8 10 -15 16 -15 6 0 8 5 5 10 -3 6 1 10 10 10 10 0
14 -5 9 -12 -5 -10 -4 -10 6 -1 11 10 17 10 29 0 12 -9 13 -9 7 0 -5 9 -2 11
8 7 9 -3 16 -13 16 -21 0 -8 -5 -11 -12 -7 -6 4 -4 -3 5 -16 11 -16 13 -29 7
-46 -6 -14 -6 -26 0 -29 6 -4 7 -13 1 -24 -6 -10 -6 -23 0 -32 12 -20 11 -37
-2 -19 -8 12 -10 10 -5 -9 3 -14 0 -32 -7 -40 -10 -12 -9 -14 4 -9 12 5 15 1
11 -18 -2 -13 -9 -24 -15 -24 -6 0 -2 -7 9 -15 15 -11 16 -15 4 -15 -8 -1 -1
-7 15 -14 25 -11 31 -11 38 0 6 11 13 11 35 -4 14 -9 23 -11 19 -4 -5 6 -4 12
2 12 6 0 12 -8 12 -17 1 -17 2 -17 6 -1 4 14 8 16 24 8 15 -9 19 -7 20 7 0 16
1 16 9 -2 5 -11 9 -14 9 -6 1 11 4 11 16 1 12 -10 15 -10 15 1 1 9 6 7 17 -6
13 -16 15 -17 10 -2 -7 20 4 22 21 5 9 -9 12 -9 12 1 0 11 3 11 17 0 9 -8 14
-9 10 -2 -5 7 -1 9 12 6 22 -6 37 -33 18 -33 -8 0 -6 -4 3 -10 13 -9 13 -10 0
-10 -13 0 -13 -1 0 -10 10 -6 11 -10 3 -10 -7 0 -13 -5 -13 -11 0 -5 4 -8 8
-5 5 3 9 -1 9 -9 0 -8 -5 -12 -10 -8 -5 3 -6 -4 -2 -18 12 -37 14 -70 4 -63
-12 7 -11 4 2 -35 8 -24 8 -35 -1 -46 -10 -12 -10 -15 1 -15 11 0 11 -2 -1
-10 -12 -8 -12 -10 -1 -10 11 0 11 -3 1 -15 -7 -8 -9 -15 -4 -15 5 0 -2 -6
-16 -14 -21 -11 -28 -11 -41 1 -9 7 -18 10 -22 7 -9 -9 -98 -11 -103 -2 -3 4
-16 3 -29 -2 -15 -6 -27 -6 -30 1 -4 5 -11 7 -16 3 -17 -10 -139 -10 -140 1 0
5 -3 4 -6 -2 -6 -17 -33 -17 -34 0 0 10 -2 10 -6 0 -2 -7 -11 -13 -19 -13 -8
0 -14 6 -14 13 0 8 -3 8 -8 1 -12 -18 -40 -23 -52 -9 -8 10 -18 11 -35 5 -15
-6 -27 -6 -30 1 -4 5 -11 6 -17 3 -17 -11 -79 -6 -94 7 -12 10 -13 9 -8 -5 3
-9 11 -16 17 -16 6 0 7 -3 4 -6 -4 -4 -12 -2 -19 3 -22 17 -76 24 -81 10 -3
-8 -10 -5 -20 8 -14 19 -16 19 -22 3 -8 -21 -35 -24 -36 -5 0 9 -2 9 -6 0 -6
-17 -33 -17 -34 0 0 10 -2 10 -6 0 -2 -7 -11 -13 -19 -13 -8 0 -14 6 -15 13 0
10 -2 10 -6 0 -2 -7 -9 -13 -14 -13 -6 0 -7 5 -3 12 5 7 3 8 -7 3 -7 -5 -26
-8 -42 -7 -23 2 -28 -1 -23 -13 3 -8 0 -15 -6 -15 -7 0 -6 -5 2 -15 10 -12 10
-15 -1 -16 -11 0 -11 -2 -1 -6 10 -4 9 -9 -5 -20 -10 -8 -12 -12 -6 -8 9 4 12
-3 10 -27 -2 -18 1 -39 6 -45 6 -9 6 -13 -2 -13 -9 0 -9 -5 -1 -20 9 -16 8
-20 -7 -20 -15 0 -15 -2 3 -15 10 -8 14 -15 7 -15 -8 0 -9 -9 -3 -30 5 -19 5
-28 -1 -25 -5 4 -9 -1 -9 -10 0 -10 5 -13 13 -9 8 5 7 2 -2 -10 -11 -13 -16
-14 -22 -4 -6 9 -9 9 -9 1 0 -12 -17 -12 -37 0 -8 5 -13 3 -13 -7 0 -19 -16
-21 -26 -4 -5 7 -3 8 6 3 9 -5 11 -4 6 3 -5 8 -13 9 -24 3 -9 -4 -23 -6 -30
-4 -7 3 -19 0 -26 -7 -11 -8 -16 -8 -21 0 -4 7 -18 9 -32 5 -15 -3 -32 0 -41
7 -14 11 -15 10 -9 -6 6 -16 5 -17 -8 -6 -8 7 -15 9 -15 5 0 -4 -7 -2 -15 5
-9 7 -18 10 -22 6 -3 -3 -1 -6 6 -6 7 0 9 -5 6 -11 -4 -6 -13 -8 -21 -5 -8 3
-11 0 -7 -9 3 -8 10 -12 16 -8 6 4 7 1 1 -8 -4 -8 -7 -27 -5 -43 2 -21 -1 -26
-11 -20 -7 4 -4 -3 7 -16 17 -20 17 -22 3 -17 -12 4 -15 2 -11 -8 3 -8 10 -12
17 -8 7 4 7 1 -1 -7 -10 -11 -10 -17 0 -29 10 -12 9 -14 -5 -8 -12 4 -15 2
-11 -8 3 -8 10 -12 17 -8 6 3 3 -3 -7 -14 -18 -21 -14 -58 6 -46 6 4 7 1 2 -7
-11 -17 -11 -73 0 -90 6 -10 4 -12 -8 -7 -11 4 -14 2 -10 -8 3 -8 10 -12 17
-8 7 4 7 1 -1 -7 -10 -11 -10 -17 0 -29 9 -12 9 -13 0 -7 -8 4 -13 1 -13 -9 0
-10 5 -14 13 -9 9 5 9 4 0 -6 -10 -11 -10 -17 0 -29 9 -12 9 -13 0 -7 -8 4
-13 1 -13 -9 0 -9 4 -14 9 -11 5 4 7 -3 4 -14 -3 -11 -10 -17 -16 -13 -6 4 -7
1 -1 -8 5 -8 9 -28 10 -45 1 -17 5 -37 9 -44 5 -9 4 -11 -3 -6 -13 8 -12 -20
1 -41 5 -8 3 -13 -3 -13 -7 0 -9 -7 -6 -16 5 -14 4 -15 -9 -4 -12 10 -15 10
-15 0 0 -9 -8 -7 -26 5 -15 9 -24 13 -20 7 8 -14 -30 -22 -43 -9 -7 7 -11 7
-11 1 0 -6 -7 -11 -15 -11 -8 0 -15 5 -15 11 0 5 -7 1 -16 -10 -8 -10 -13 -14
-10 -7 4 6 2 14 -4 18 -5 3 -10 3 -10 -2 0 -10 -62 -9 -78 1 -7 4 -12 2 -12
-4 0 -6 -12 -9 -27 -8 -23 2 -27 -1 -25 -16 2 -12 -1 -16 -10 -10 -7 4 -4 -3
7 -16 11 -13 15 -20 9 -17 -7 4 -14 -2 -17 -13 -3 -11 -1 -20 5 -20 5 0 6 -6
1 -12 -12 -20 -12 -39 0 -31 6 4 8 0 4 -10 -4 -10 -1 -17 6 -17 8 0 6 -4 -3
-10 -8 -5 -11 -10 -6 -10 5 0 3 -7 -4 -15 -9 -10 -9 -15 -1 -15 6 0 11 -7 11
-16 0 -8 -4 -13 -8 -10 -5 3 -9 -1 -9 -9 0 -8 4 -12 9 -9 13 8 6 -29 -7 -38
-6 -5 -5 -8 3 -8 6 0 12 -7 12 -16 0 -10 -6 -14 -15 -10 -10 3 -15 -1 -15 -12
0 -10 -3 -13 -8 -6 -4 6 -18 10 -32 10 -14 0 -32 4 -39 9 -9 5 -12 4 -8 -2 7
-11 -84 -10 -102 1 -5 4 -14 -2 -20 -11 -6 -10 -11 -13 -11 -7 0 17 -72 12
-90 -6 -9 -8 -12 -18 -7 -21 6 -4 6 -13 1 -20 -14 -23 -13 -41 2 -35 11 4 11
0 -2 -19 -15 -23 -15 -25 2 -25 17 0 16 -1 -2 -15 -13 -10 -14 -14 -5 -15 10
0 11 -3 2 -14 -9 -11 -9 -15 0 -18 8 -3 9 -9 4 -19 -15 -23 -15 -41 1 -35 11
4 11 0 -2 -19 -15 -23 -15 -25 2 -25 17 0 16 -1 -2 -15 -13 -10 -14 -14 -5
-15 10 0 11 -3 2 -14 -9 -11 -9 -15 0 -18 8 -3 9 -9 4 -19 -15 -23 -15 -41 1
-35 11 4 11 0 -2 -19 -15 -23 -15 -25 2 -25 17 0 16 -1 -2 -15 -13 -10 -14
-14 -5 -15 10 0 11 -3 2 -14 -9 -11 -9 -15 0 -18 8 -3 9 -9 4 -19 -15 -23 -15
-41 1 -35 11 4 11 0 -2 -19 -15 -23 -15 -25 2 -25 17 0 16 -1 -2 -15 -13 -10
-15 -14 -5 -15 8 0 11 -3 8 -7 -4 -3 -1 -13 6 -21 8 -10 8 -13 1 -9 -7 4 -14
0 -18 -8 -3 -8 0 -15 6 -15 6 0 5 -6 -3 -17 -12 -15 -12 -16 1 -8 13 7 13 6 2
-7 -10 -13 -10 -17 0 -20 10 -4 10 -8 -1 -21 -9 -11 -10 -17 -2 -17 6 0 11 -5
11 -11 0 -5 -6 -7 -12 -3 -10 5 -10 4 -1 -6 10 -11 10 -17 0 -29 -10 -12 -9
-13 3 -6 13 7 13 6 2 -7 -10 -13 -10 -17 0 -20 10 -4 10 -8 -1 -21 -9 -11 -10
-17 -2 -17 6 0 11 -5 11 -11 0 -5 -4 -8 -8 -5 -5 3 -9 -2 -9 -10 0 -9 6 -13
15 -9 13 5 13 3 1 -11 -14 -17 -20 -56 -7 -48 4 3 8 1 8 -5 0 -5 -5 -13 -10
-16 -6 -4 -7 -13 -1 -24 6 -10 6 -23 1 -31 -5 -8 -5 -21 1 -31 11 -22 12 -32
1 -25 -5 3 -9 -1 -9 -9 0 -8 5 -12 10 -8 5 3 4 -4 -2 -16 -10 -18 -9 -21 6
-21 15 0 16 -2 3 -10 -8 -5 -11 -10 -6 -10 5 0 3 -7 -4 -15 -10 -11 -9 -18 4
-30 17 -18 21 -30 7 -21 -5 3 -11 -1 -15 -9 -3 -8 0 -15 6 -15 6 0 5 -6 -3
-17 -12 -15 -12 -16 1 -8 13 7 13 6 2 -7 -10 -13 -10 -17 0 -20 10 -4 10 -8
-1 -21 -9 -11 -10 -17 -2 -17 6 0 11 -5 11 -11 0 -5 -4 -8 -8 -5 -5 3 -9 -2
-9 -10 0 -9 6 -13 15 -9 13 5 13 3 1 -11 -14 -17 -20 -56 -7 -48 4 3 8 1 8 -5
0 -5 -5 -13 -10 -16 -6 -4 -7 -13 -1 -24 6 -10 6 -23 1 -31 -5 -8 -5 -21 1
-31 11 -22 12 -32 1 -25 -5 3 -9 -1 -9 -9 0 -8 5 -12 10 -8 5 3 4 -4 -2 -16
-10 -18 -9 -21 6 -21 15 0 16 -2 3 -10 -8 -5 -11 -10 -6 -10 5 0 3 -7 -4 -15
-10 -11 -9 -18 4 -30 17 -18 21 -30 7 -21 -5 3 -11 -1 -15 -9 -3 -8 0 -15 6
-15 6 0 5 -6 -3 -17 -12 -15 -12 -16 1 -8 13 7 13 6 2 -7 -10 -13 -10 -17 0
-20 10 -4 10 -8 -1 -21 -9 -11 -10 -17 -2 -17 6 0 11 -5 11 -11 0 -5 -4 -8 -8
-5 -5 3 -9 -2 -9 -10 0 -9 6 -13 16 -9 11 4 10 0 -5 -16 -11 -14 -13 -19 -4
-14 13 8 13 7 1 -8 -9 -12 -10 -17 -2 -17 9 0 9 -5 0 -21 -8 -15 -8 -19 0 -15
15 10 14 -7 -1 -23 -11 -11 -10 -12 2 -6 12 6 13 5 3 -5 -10 -11 -9 -16 5 -27
16 -12 15 -12 -3 -6 -17 6 -18 5 -5 -9 11 -11 19 -13 28 -6 8 7 12 7 12 -1 0
-8 5 -9 19 -1 25 13 41 13 21 0 -9 -6 -10 -10 -3 -10 6 0 15 5 19 11 4 8 9 7
16 -2 8 -11 11 -11 15 -1 4 10 8 10 21 0 12 -10 14 -10 8 0 -4 6 -2 12 3 12 6
0 11 -4 11 -8 0 -5 7 -9 15 -9 8 0 12 4 9 9 -3 4 0 8 5 8 6 0 11 -6 11 -12 0
-9 4 -8 10 2 5 8 10 10 10 4 0 -12 49 -12 69 1 10 6 12 4 6 -5 -5 -7 3 -5 16
5 27 20 35 55 16 67 -9 6 -9 8 0 8 13 0 12 18 -1 39 -6 10 -5 12 2 7 8 -5 12
1 12 14 0 14 -4 19 -12 14 -10 -6 -10 -4 0 7 15 16 16 33 0 23 -7 -5 -8 -3 -2
7 14 24 16 51 2 43 -10 -6 -11 -4 0 7 16 17 16 32 0 23 -8 -5 -7 0 2 11 15 18
15 22 -1 41 -6 7 -3 16 8 25 11 9 14 10 9 2 -4 -7 -2 -13 3 -13 6 0 11 4 11 9
0 5 7 12 16 15 13 5 14 4 6 -7 -9 -11 -5 -13 23 -12 20 1 38 5 42 8 3 4 12 2
20 -4 9 -9 13 -8 13 0 0 6 5 11 11 11 5 0 7 -6 3 -12 -5 -9 -2 -9 9 1 14 11
17 11 17 0 0 -12 2 -12 9 0 6 10 10 10 16 1 6 -9 10 -9 16 1 8 12 11 11 19 -1
9 -13 10 -13 10 0 0 10 3 11 8 4 7 -12 47 -12 58 -1 4 3 15 2 25 -4 14 -7 19
-6 19 2 0 8 5 7 17 -2 11 -10 14 -10 9 -1 -9 15 6 16 22 0 9 -9 12 -9 12 0 0
7 5 12 11 12 5 0 8 -4 4 -9 -6 -10 27 -7 45 4 6 3 10 1 10 -5 0 -7 7 -5 16 4
19 19 31 21 15 3 -8 -11 -4 -13 24 -12 19 1 41 8 50 15 13 11 15 10 10 -1 -4
-10 4 -14 29 -14 19 0 34 5 33 10 -1 6 4 9 11 7 6 -1 12 2 12 8 0 5 -5 10 -11
10 -8 0 -7 6 2 17 9 11 10 14 2 9 -9 -5 -11 -2 -7 9 4 8 0 23 -7 32 -10 12
-10 15 -1 9 8 -5 12 -1 12 11 0 11 -6 25 -12 32 -11 11 -10 12 1 6 11 -6 13
-3 9 13 -4 13 -1 22 5 22 7 0 5 5 -3 10 -8 5 -10 10 -4 10 12 0 11 32 -1 63
-4 10 -3 17 5 17 6 0 8 5 3 13 -14 22 -12 36 5 30 8 -4 13 -2 9 3 -3 6 9 10
29 10 19 0 34 -5 34 -10 0 -5 7 -1 16 10 8 10 13 14 10 8 -3 -7 4 -14 15 -17
15 -4 19 -2 15 9 -4 11 -1 12 12 6 9 -5 23 -7 31 -4 8 3 11 0 7 -7 -5 -8 0 -8
19 1 19 9 28 9 37 0 9 -9 15 -9 25 0 10 8 17 8 25 0 9 -9 15 -9 26 0 10 9 16
8 23 -3 7 -12 9 -12 9 1 0 13 1 13 10 0 8 -12 10 -12 10 5 1 19 1 19 11 2 6
-10 15 -14 22 -10 16 9 47 11 52 3 3 -6 50 -5 50 0 0 1 19 3 42 5 24 1 41 0
39 -4 -2 -3 9 -6 25 -7 16 -1 29 2 29 5 0 4 9 7 20 8 13 1 18 -2 14 -9 -5 -7
-2 -8 7 -2 8 5 17 9 22 10 4 1 10 2 15 3 4 1 0 6 -8 11 -13 8 -13 10 1 10 19
0 18 31 -2 56 -8 10 -9 15 -3 11 8 -4 13 4 16 23 4 25 2 28 -10 17 -13 -10
-14 -9 -4 10 15 28 15 46 0 37 -6 -4 -4 3 5 15 17 25 12 55 -7 44 -6 -4 -5 1
2 10 8 9 11 21 7 27 -3 5 -1 10 5 10 6 0 8 5 5 10 -4 6 -11 7 -17 4 -7 -5 -8
-2 -2 7 5 8 9 18 9 23 0 5 7 11 15 13 13 4 13 3 0 -6 -11 -8 -11 -11 -2 -11 7
0 15 7 18 15 6 14 8 13 21 -2 8 -10 12 -13 9 -7 -7 14 21 27 29 14 3 -5 13 -6
22 -3 12 5 14 3 8 -8 -7 -11 -6 -12 6 -3 20 15 59 15 59 1 0 -8 3 -7 9 2 7 10
13 11 30 2 14 -8 21 -8 21 -1 0 5 -5 10 -12 10 -6 0 -8 3 -5 6 4 4 18 -1 33
-11 24 -16 26 -16 21 -1 -5 14 -3 15 13 6 25 -13 33 -13 24 3 -5 7 0 6 11 -3
11 -9 16 -10 11 -2 -4 7 -2 12 5 12 8 0 8 4 -1 15 -9 11 -9 15 -1 15 7 0 9 5
6 10 -4 6 -11 7 -17 4 -7 -4 -8 -2 -4 5 4 6 12 9 17 6 5 -4 9 -1 9 4 0 6 -8
11 -17 12 -17 0 -17 1 -1 7 12 5 14 12 9 21 -5 7 -5 27 -1 43 5 17 5 26 -1 23
-5 -4 -9 -1 -9 4 0 6 6 11 13 12 10 0 10 2 0 6 -7 2 -13 9 -13 14 0 6 5 7 11
3 8 -4 8 0 0 15 -9 16 -9 21 1 22 7 0 4 4 -7 9 l-20 9 20 0 c17 1 17 3 5 11
-14 9 -7 15 14 11 5 -1 5 4 -1 11 -19 24 -22 58 -6 58 8 0 11 5 7 13 -4 6 -4
9 1 5 4 -4 14 -3 22 4 11 8 12 7 7 -6 -7 -19 -1 -20 27 -3 17 9 23 9 26 0 3
-9 10 -10 24 -3 10 6 19 8 19 4 0 -3 6 -1 14 5 11 9 16 9 22 0 4 -8 3 -9 -4
-5 -7 4 -12 3 -12 -3 0 -11 39 -9 58 3 7 4 12 3 12 -2 0 -10 30 -9 48 2 7 4
12 2 12 -5 0 -9 4 -9 15 1 8 6 18 9 23 6 13 -8 21 38 10 58 -7 12 -4 16 9 17
15 0 15 2 3 7 -8 4 -16 13 -18 20 -1 8 1 11 6 8 4 -3 7 14 6 37 -2 23 -4 42
-5 42 -7 0 -2 62 6 67 6 5 4 8 -5 8 -13 0 -13 1 0 10 13 8 13 10 1 10 -11 0
-10 4 5 16 10 8 14 13 8 10 -7 -3 -17 1 -24 9 -11 13 -10 14 2 10 12 -5 13 3
8 45 -5 41 -4 50 9 50 11 0 10 3 -5 15 -11 8 -14 14 -6 15 10 0 10 5 1 21 -8
15 -8 19 0 15 6 -4 11 -2 11 3 0 6 -6 11 -12 12 -9 0 -9 2 -2 5 6 3 9 16 6 29
-2 14 2 33 9 42 8 9 9 14 3 10 -7 -4 -17 0 -24 8 -10 12 -9 16 3 21 12 4 14
11 6 30 -6 17 -6 23 1 19 6 -3 10 -1 10 6 0 8 3 9 14 0 10 -9 16 -8 26 4 9 11
16 12 25 5 6 -5 15 -7 18 -3 4 3 7 0 7 -8 0 -11 2 -11 10 1 8 12 13 13 29 3
16 -10 22 -9 31 3 9 10 16 11 25 4 6 -5 15 -7 18 -3 4 3 7 0 7 -8 0 -11 2 -11
10 1 7 12 13 13 28 3 16 -9 23 -8 37 5 10 9 15 12 11 6 -3 -7 1 -14 9 -17 9
-4 12 -1 8 9 -3 10 0 12 10 8 8 -3 18 0 23 7 5 8 3 10 -6 4 -10 -6 -12 -3 -8
13 4 13 1 22 -5 23 -7 0 -3 4 8 9 11 5 14 9 7 9 -8 1 -12 7 -9 14 2 6 0 20 -5
31 -7 13 -7 16 1 12 6 -4 11 -3 11 3 0 5 -5 13 -12 17 -7 5 -5 11 7 21 18 13
18 13 -1 13 -14 0 -16 2 -5 9 10 7 11 10 1 16 -10 6 -9 11 5 22 18 13 18 13
-1 14 -11 0 -14 3 -6 6 10 4 10 8 1 19 -8 10 -8 14 0 14 6 0 11 7 11 16 0 8
-4 13 -9 10 -9 -6 -7 29 4 64 5 15 4 20 -4 16 -6 -4 -11 -2 -11 3 0 6 4 11 9
11 5 0 12 7 15 16 5 14 4 15 -9 4 -13 -11 -14 -10 -9 6 4 10 12 25 18 33 8 11
8 13 -1 7 -9 -5 -13 0 -13 18 0 14 5 28 10 31 7 4 5 14 -4 27 -11 15 -12 26
-5 39 6 12 5 20 -2 25 -9 5 -6 11 6 21 18 13 18 13 -1 14 -11 0 -14 3 -6 6 10
4 10 8 1 19 -8 10 -8 14 0 14 7 0 8 8 1 26 -6 15 -6 23 -1 19 5 -3 12 -1 16 5
3 5 1 10 -6 10 -6 0 -9 8 -6 20 3 11 1 23 -5 26 -5 3 -1 12 9 21 17 14 17 14
-1 9 -16 -6 -17 -4 -6 9 10 12 10 15 -1 15 -8 0 -6 6 7 16 10 8 14 13 7 10 -6
-4 -14 -2 -18 4 -3 5 -1 10 4 10 6 0 11 5 11 11 0 5 -6 7 -12 4 -7 -4 -4 1 6
9 20 16 20 16 0 16 -14 0 -16 2 -5 9 10 7 11 10 1 16 -10 6 -9 11 5 22 18 13
18 13 -1 14 -11 0 -14 3 -6 6 9 3 10 9 2 18 -7 9 -3 19 15 39 14 15 25 22 25
16 0 -8 6 -8 19 0 16 8 22 6 30 -7 10 -17 10 -17 11 0 0 12 4 16 12 10 17 -10
49 -10 70 -1 10 5 20 3 24 -4 5 -7 3 -8 -6 -3 -9 5 -11 4 -6 -4 5 -7 12 -9 19
-3 16 13 50 11 59 -2 5 -7 8 -4 8 7 0 19 2 20 24 11 9 -3 13 -11 9 -18 -5 -8
-3 -8 8 0 18 14 61 25 54 13 -3 -5 -1 -18 5 -29 6 -12 7 -20 1 -20 -6 0 -6
-11 -1 -30 5 -18 5 -30 -1 -30 -5 0 -9 -5 -9 -11 0 -5 4 -8 9 -4 6 3 6 -6 1
-24 -7 -25 -6 -29 8 -24 10 4 7 -3 -8 -16 -14 -12 -20 -20 -13 -17 16 8 21
-12 13 -56 -5 -25 -4 -38 4 -39 7 0 6 -3 -1 -6 -9 -3 -10 -10 -3 -24 8 -14 7
-19 -2 -20 -11 0 -11 -2 0 -6 10 -4 10 -8 0 -21 -7 -9 -8 -13 -3 -10 7 4 11
-5 10 -23 0 -16 -3 -29 -7 -29 -3 0 -4 -9 -1 -20 3 -11 0 -26 -6 -34 -10 -11
-8 -17 6 -25 10 -6 13 -11 6 -11 -8 0 -9 -9 -3 -30 5 -18 5 -30 -1 -30 -5 0
-9 -5 -9 -11 0 -5 4 -8 9 -4 6 3 6 -6 1 -24 -7 -25 -6 -29 8 -24 10 4 7 -3 -8
-16 -14 -12 -20 -20 -13 -17 16 8 21 -12 13 -56 -5 -25 -4 -38 4 -39 7 0 6 -3
-1 -6 -9 -3 -10 -10 -3 -24 8 -14 7 -19 -2 -20 -11 0 -11 -2 0 -6 10 -4 10 -8
0 -21 -7 -9 -8 -13 -3 -10 7 4 11 -5 10 -23 0 -16 -3 -29 -7 -29 -3 0 -4 -9
-1 -20 3 -11 0 -26 -6 -34 -10 -11 -8 -17 6 -25 10 -6 13 -11 6 -11 -8 0 -9
-9 -3 -29 4 -15 4 -34 -1 -42 -5 -8 -3 -16 4 -21 9 -6 9 -8 -1 -8 -10 0 -10
-5 -2 -20 8 -15 8 -20 -2 -21 -11 0 -11 -2 0 -6 10 -4 10 -8 0 -21 -7 -9 -8
-13 -3 -10 7 4 11 -5 10 -23 0 -16 -3 -29 -7 -29 -3 0 -4 -9 -1 -20 3 -11 0
-26 -6 -34 -10 -11 -8 -17 6 -25 10 -6 13 -11 6 -11 -8 0 -9 -9 -3 -30 5 -18
5 -30 -1 -30 -5 0 -9 -5 -9 -11 0 -5 4 -8 9 -4 6 3 6 -6 1 -24 -7 -25 -6 -29
8 -24 10 4 7 -3 -8 -16 -14 -12 -20 -20 -13 -17 16 8 21 -12 13 -56 -5 -25 -4
-38 4 -39 7 0 6 -3 -1 -6 -9 -3 -10 -10 -3 -24 8 -14 7 -19 -2 -20 -11 0 -11
-2 0 -6 10 -4 10 -8 0 -21 -7 -9 -8 -13 -3 -10 7 4 11 -5 10 -23 0 -16 -3 -29
-7 -29 -3 0 -4 -9 -1 -20 3 -11 0 -26 -6 -34 -10 -11 -8 -17 6 -25 10 -6 13
-11 6 -11 -8 0 -9 -9 -3 -30 5 -18 5 -30 -1 -30 -5 0 -9 -5 -9 -11 0 -5 4 -8
9 -4 6 3 6 -6 1 -24 -7 -25 -6 -29 8 -24 10 4 7 -3 -8 -16 -14 -12 -20 -20
-13 -17 16 8 21 -12 13 -56 -5 -25 -4 -38 4 -39 7 0 6 -3 -1 -6 -9 -3 -10 -10
-3 -24 8 -14 7 -19 -2 -20 -11 0 -11 -2 0 -6 10 -4 10 -8 0 -21 -7 -9 -8 -13
-2 -9 17 10 12 -46 -6 -61 -8 -7 -10 -12 -5 -11 22 3 29 -2 15 -11 -12 -8 -12
-10 -1 -10 11 0 11 -3 0 -17 -8 -9 -9 -14 -4 -11 7 4 11 -5 10 -23 0 -16 -4
-29 -10 -29 -5 0 -3 -5 5 -10 8 -5 10 -10 4 -10 -14 0 -13 -32 1 -42 6 -5 5
-8 -3 -8 -10 0 -10 -5 -2 -20 8 -15 8 -20 -2 -21 -11 0 -11 -2 0 -6 10 -4 10
-8 0 -21 -7 -9 -8 -13 -3 -10 7 4 11 -5 10 -23 0 -16 -3 -29 -7 -29 -3 0 -4
-9 -1 -20 3 -11 0 -26 -6 -34 -10 -11 -8 -17 6 -25 10 -6 13 -11 6 -11 -8 0
-9 -9 -3 -30 5 -18 5 -30 -1 -30 -5 0 -9 -5 -9 -11 0 -5 4 -8 9 -4 6 3 6 -6 1
-24 -7 -25 -6 -29 8 -24 10 4 7 -3 -8 -16 -14 -12 -20 -20 -13 -17 16 8 21
-12 13 -56 -5 -25 -4 -38 4 -39 7 0 6 -3 -1 -6 -9 -3 -10 -10 -3 -24 8 -14 7
-19 -2 -20 -11 0 -11 -2 0 -6 10 -4 10 -8 0 -21 -7 -9 -8 -13 -3 -10 7 4 11
-5 10 -23 0 -16 -4 -29 -9 -29 -5 0 -2 -8 5 -17 12 -15 12 -16 -6 -10 -18 6
-18 5 -4 -5 11 -9 14 -20 9 -33 -4 -11 -3 -28 2 -37 5 -12 5 -18 -2 -18 -5 0
-10 -5 -10 -11 0 -5 5 -7 12 -3 7 4 8 3 4 -4 -4 -6 -14 -8 -23 -5 -9 4 -14 2
-10 -3 3 -6 -3 -11 -14 -11 -10 -1 -19 2 -19 8 0 5 -5 9 -11 9 -5 0 -8 -4 -5
-8 2 -4 -4 -8 -14 -8 -10 0 -16 4 -14 8 3 4 -6 4 -20 -2 -15 -5 -26 -6 -26 -1
0 14 -30 6 -41 -10 -7 -11 -9 -10 -9 5 0 15 -3 16 -15 6 -9 -7 -18 -10 -22 -6
-3 3 0 6 7 6 7 0 11 3 8 6 -4 3 -16 1 -27 -6 -15 -7 -21 -7 -21 0 0 8 -6 8
-20 0 -15 -8 -20 -8 -20 1 0 8 -4 9 -13 0 -8 -6 -17 -8 -20 -5 -7 8 -31 -15
-40 -38 -4 -13 -2 -16 11 -12 15 5 15 4 -1 -9 -12 -10 -14 -17 -7 -22 5 -3 7
-12 3 -18 -11 -17 -13 -38 -3 -32 5 3 11 1 15 -5 3 -5 -1 -10 -9 -10 -9 0 -16
-5 -16 -11 0 -5 5 -7 10 -4 6 3 10 2 10 -4 0 -5 -5 -13 -10 -16 -8 -5 -8 -11
0 -20 8 -10 7 -14 -2 -18 -8 -3 -5 -6 6 -6 20 -1 20 -1 0 -17 -10 -8 -13 -13
-6 -9 6 3 12 1 12 -4 0 -6 -6 -11 -12 -11 -8 0 -5 -7 6 -15 12 -9 15 -15 7
-15 -9 0 -11 -8 -6 -27 5 -22 4 -25 -8 -14 -12 9 -16 9 -19 -1 -4 -10 -9 -10
-23 2 -22 18 -18 18 -38 1 -14 -11 -17 -11 -17 0 0 9 -3 10 -8 4 -10 -14 -49
-18 -57 -5 -5 8 -11 8 -21 -1 -11 -9 -14 -8 -14 2 0 10 -2 11 -8 2 -8 -13 -29
-12 -51 1 -9 6 -12 5 -7 -2 4 -7 -1 -10 -14 -9 -11 1 -20 6 -20 11 0 5 -7 1
-16 -10 -8 -10 -13 -14 -10 -8 3 7 0 14 -8 17 -11 5 -13 0 -6 -24 5 -16 5 -29
0 -29 -4 0 -7 -8 -5 -17 12 -62 14 -83 5 -78 -9 6 -6 -27 5 -45 3 -6 0 -10 -7
-10 -8 -1 -6 -6 6 -15 17 -13 18 -15 3 -15 -9 0 -17 -4 -17 -10 0 -5 5 -10 10
-10 7 0 8 -6 2 -17 -6 -9 -6 -29 -2 -45 6 -19 5 -28 -3 -29 -9 0 -9 -2 0 -5 7
-3 9 -12 6 -21 -4 -11 -2 -14 5 -9 7 4 12 2 12 -6 0 -9 3 -9 10 2 8 13 10 13
10 1 0 -12 3 -12 12 -3 8 8 15 8 24 1 9 -7 19 -7 33 1 15 7 21 7 21 0 0 -7 7
-7 21 1 17 9 20 8 13 -3 -6 -11 -5 -11 9 1 9 7 17 9 17 4 0 -5 9 -9 19 -9 16
0 18 3 8 15 -10 12 -9 13 9 3 12 -6 24 -8 28 -5 3 3 6 0 6 -8 0 -11 2 -11 10
1 6 10 10 11 10 3 0 -7 5 -13 11 -13 5 0 8 4 5 8 -4 7 28 8 44 2 3 -1 10 -2
15 0 6 1 4 -4 -2 -11 -7 -7 -13 -19 -13 -27 0 -7 6 -10 13 -7 6 4 3 -1 -7 -9
-11 -9 -14 -16 -7 -16 7 0 9 -5 5 -12 -5 -7 -9 -21 -9 -30 -1 -15 1 -15 13 -5
13 10 14 9 3 -11 -10 -18 -10 -26 0 -38 10 -12 9 -13 -5 -8 -13 5 -15 2 -10
-12 4 -11 11 -24 16 -31 6 -7 5 -14 -2 -18 -7 -4 -10 -16 -7 -26 3 -10 1 -19
-4 -21 -5 -2 1 -18 14 -35 13 -18 27 -30 31 -26 11 12 37 12 30 1 -4 -7 -2 -8
4 -4 21 13 51 15 58 4 4 -6 10 -5 15 3 6 10 9 11 9 2 0 -7 5 -13 11 -13 5 0 8
4 5 8 -6 10 30 9 40 -1 12 -12 26 -8 18 6 -5 8 -2 8 9 -2 14 -11 17 -11 18 0
0 10 2 11 6 1 2 -6 10 -9 16 -5 18 11 38 12 31 2 -8 -13 10 -11 25 4 11 10 13
10 7 0 -4 -7 -3 -13 3 -13 5 0 11 5 13 11 2 6 9 0 16 -15 7 -16 8 -26 1 -26
-6 0 -6 -7 1 -20 8 -14 8 -20 0 -20 -8 0 -8 -6 0 -20 6 -12 7 -20 1 -20 -5 0
-7 -9 -4 -20 3 -11 10 -17 16 -13 6 3 7 1 3 -5 -4 -7 -15 -12 -24 -13 -14 0
-13 -2 3 -9 11 -5 14 -9 8 -9 -9 -1 -10 -8 -3 -27 7 -16 7 -23 0 -19 -12 8
-13 -5 -1 -24 7 -10 4 -19 -7 -29 -9 -7 -12 -11 -6 -8 15 7 27 -21 13 -29 -16
-10 1 -26 22 -20 12 4 19 2 20 -7 0 -7 4 -4 9 7 5 11 9 14 9 8 1 -7 6 -13 12
-13 5 0 8 4 5 8 -3 5 1 9 9 9 8 0 12 -4 9 -9 -7 -11 3 -10 28 3 15 8 19 8 14
0 -4 -6 0 -11 9 -11 10 0 13 5 9 12 -5 7 -3 8 7 2 20 -12 63 -12 71 1 5 6 8 5
8 -4 0 -11 3 -11 17 0 11 10 14 10 9 2 -9 -17 6 -17 23 0 11 10 12 9 6 -2 -7
-11 -1 -13 26 -8 19 3 28 3 21 0 -6 -2 -9 -10 -5 -16 10 -17 9 -67 -2 -67 -5
0 -3 -5 5 -10 11 -7 11 -10 2 -10 -10 0 -10 -5 -2 -20 8 -15 8 -20 -2 -21 -10
0 -10 -2 1 -6 10 -4 10 -7 1 -13 -8 -5 -7 -11 5 -24 12 -12 13 -16 3 -16 -8 0
-14 -9 -14 -19 0 -11 4 -17 8 -15 4 3 8 0 8 -5 0 -6 -5 -11 -10 -11 -7 0 -7
-6 0 -20 8 -15 8 -20 -2 -21 -9 0 -10 -2 -1 -5 7 -3 9 -12 6 -20 -3 -9 0 -14
8 -12 8 2 13 -3 11 -10 -1 -6 2 -12 8 -12 5 0 10 8 10 18 0 14 2 15 10 2 5 -8
12 -11 16 -8 4 4 16 3 27 -3 14 -8 18 -8 13 0 -4 6 -5 11 -2 11 2 0 13 3 23 6
15 5 16 4 3 -6 -13 -10 -12 -11 6 -7 12 2 28 1 35 -4 7 -4 20 -4 28 1 9 5 24
4 36 -2 18 -10 19 -10 5 7 -14 17 -14 17 7 7 27 -15 36 -15 28 -2 -3 6 1 7 9
4 9 -3 13 -11 9 -18 -4 -6 1 -5 10 3 21 17 46 8 42 -16 -1 -10 3 -24 9 -32 8
-12 8 -13 -2 -7 -10 6 -12 -1 -10 -29 1 -20 6 -39 11 -42 4 -2 4 -10 -2 -17
-11 -14 -9 -85 3 -105 7 -10 6 -12 -4 -6 -9 6 -11 -2 -7 -34 3 -26 0 -41 -7
-42 -7 0 -6 -3 2 -6 6 -2 10 -9 6 -14 -10 -17 6 -30 26 -19 13 7 21 7 25 0 3
-5 11 -10 16 -10 6 0 8 4 5 8 -2 4 4 8 15 8 10 0 19 -4 19 -9 0 -6 5 -6 13 -1
17 13 37 11 67 -6 22 -11 23 -11 13 1 -10 12 -8 15 8 15 10 0 19 -4 19 -9 0
-4 6 -5 13 0 19 12 40 10 61 -7 11 -8 16 -10 13 -3 -4 6 -3 14 3 18 5 3 10 1
10 -5 0 -6 4 -9 9 -5 6 3 10 -125 10 -340 l1 -345 -170 0 c-106 0 -170 4 -171
10 -2 13 -6 29 -9 33 -9 10 -4 50 7 54 11 4 10 8 -4 20 -10 8 -12 12 -5 8 9
-5 11 0 8 19 -3 14 -8 31 -12 37 -4 8 -3 9 4 5 16 -10 15 7 0 23 -10 11 -10
13 0 7 7 -5 12 -1 12 9 0 10 -5 13 -12 9 -10 -6 -10 -5 -1 7 10 12 10 18 0 29
-10 10 -9 12 5 7 12 -4 15 -2 11 8 -3 8 -10 12 -17 8 -8 -5 -8 -3 0 8 12 15
11 46 -2 57 -4 4 -4 -1 -1 -11 6 -16 5 -16 -21 0 -24 16 -26 16 -14 1 11 -14
11 -16 -7 -11 -12 3 -18 10 -14 17 4 6 -1 5 -11 -3 -15 -13 -19 -13 -27 0 -5
8 -9 9 -9 3 0 -6 -7 -11 -15 -11 -8 0 -15 4 -15 9 0 5 -7 2 -16 -7 -15 -14
-17 -14 -30 2 -7 10 -14 13 -14 8 0 -6 -9 -11 -20 -12 -13 -1 -18 2 -13 10 4
7 0 6 -10 -2 -14 -11 -17 -11 -17 0 0 9 -3 10 -8 4 -4 -6 -14 -10 -22 -10 -8
1 -20 -3 -27 -7 -7 -6 -15 -3 -22 9 -6 10 -11 13 -11 7 0 -13 -30 -15 -30 -2
0 5 -7 2 -16 -7 -15 -14 -17 -14 -30 2 -7 10 -14 13 -14 8 0 -6 -9 -11 -20
-12 -13 -1 -18 2 -13 10 4 7 0 6 -10 -2 -14 -11 -17 -11 -17 0 0 9 -3 10 -8 4
-4 -6 -14 -10 -22 -10 -8 1 -20 -2 -26 -7 -7 -5 -17 -2 -24 7 -10 12 -16 13
-26 4 -11 -9 -14 -8 -14 0 0 7 -5 9 -10 6 -6 -4 -8 -11 -5 -16 9 -14 -2 -11
-19 7 -9 8 -16 11 -16 6 0 -6 -8 -9 -17 -7 -10 1 -23 -2 -30 -7 -7 -6 -15 -3
-22 9 -6 10 -11 13 -11 7 0 -13 -30 -15 -30 -2 0 5 -7 2 -16 -7 -15 -14 -17
-14 -30 2 -7 10 -14 13 -14 8 0 -6 -9 -11 -20 -12 -13 -1 -18 2 -13 10 4 7 0
6 -10 -2 -14 -11 -17 -11 -17 0 0 9 -3 10 -8 4 -4 -6 -14 -10 -22 -10 -8 1
-20 -3 -27 -7 -7 -6 -15 -3 -22 9 -6 10 -11 13 -11 7 0 -13 -30 -15 -30 -2 0
5 -7 2 -16 -7 -15 -14 -17 -14 -30 2 -7 10 -14 13 -14 8 0 -6 -9 -11 -20 -12
-13 -1 -18 2 -13 10 4 7 0 6 -10 -2 -14 -11 -17 -11 -17 0 0 9 -3 10 -8 4 -4
-6 -14 -10 -22 -10 -8 1 -20 -3 -27 -7 -7 -6 -15 -3 -22 9 -6 10 -11 12 -11 5
0 -14 -21 -12 -32 3 -5 6 -8 5 -8 -2 0 -7 -7 -13 -15 -13 -8 0 -15 6 -15 13 0
8 -3 8 -8 2 -4 -6 -14 -10 -22 -10 -8 1 -20 -3 -27 -7 -7 -6 -15 -3 -22 9 -6
10 -11 13 -11 7 0 -13 -30 -15 -30 -2 0 5 -7 2 -16 -7 -15 -14 -17 -14 -30 2
-7 10 -14 13 -14 8 0 -6 -9 -11 -20 -12 -13 -1 -18 2 -13 10 4 7 0 6 -10 -2
-14 -11 -17 -11 -17 0 0 9 -3 10 -8 4 -4 -6 -14 -10 -22 -10 -8 1 -20 -3 -27
-7 -7 -6 -15 -3 -22 9 -6 10 -11 13 -11 7 0 -13 -30 -15 -30 -2 0 5 -7 2 -16
-7 -15 -14 -17 -14 -30 2 -7 10 -14 13 -14 8 0 -6 -9 -11 -20 -12 -13 -1 -18
2 -13 10 4 7 0 6 -10 -2 -14 -11 -17 -11 -17 0 0 9 -3 10 -8 4 -4 -6 -14 -10
-22 -10 -8 1 -20 -2 -26 -7 -7 -5 -17 -2 -24 7 -10 12 -16 13 -26 4 -11 -9
-14 -8 -14 0 0 7 -5 9 -10 6 -6 -4 -8 -11 -5 -16 9 -14 -2 -11 -19 7 -9 8 -16
11 -16 6 0 -6 -8 -9 -17 -7 -10 1 -23 -2 -30 -7 -7 -6 -14 -5 -19 3 -4 8 -3 9
4 5 7 -4 12 -2 12 3 0 13 -17 14 -24 2 -7 -11 -25 -9 -45 3 -11 7 -13 5 -8 -7
3 -10 2 -17 -3 -17 -6 0 -10 -5 -10 -11 0 -5 5 -7 10 -4 6 3 10 1 10 -4 0 -6
-5 -11 -11 -11 -5 0 -7 -5 -4 -10 4 -6 1 -18 -7 -27 -11 -15 -11 -16 5 -10 9
3 17 2 17 -3 0 -6 -5 -10 -11 -10 -5 0 -7 -5 -4 -10 4 -6 1 -18 -7 -27 -11
-14 -11 -16 4 -11 14 6 15 2 7 -25 -11 -39 -11 -39 -1 -34 4 3 7 -19 7 -48 0
-29 -3 -51 -7 -49 -4 2 -9 0 -13 -6 -3 -5 -1 -10 4 -10 6 0 11 -4 11 -10 0
-13 -4206 -14 -4214 -1 -4 5 0 11 6 14 10 3 10 7 1 17 -8 9 -9 19 -2 32 7 13
6 18 -2 18 -8 0 -8 4 1 15 10 12 9 15 -6 16 -18 0 -18 1 1 9 11 5 14 9 6 9
-11 1 -11 4 0 18 12 15 12 16 -1 8 -13 -8 -13 -7 -1 8 7 9 9 17 4 17 -11 0 -9
41 1 59 4 5 1 13 -5 17 -8 4 -7 9 2 15 12 7 12 9 0 9 -11 0 -11 3 -1 15 10 12
10 15 0 15 -10 0 -10 3 -1 14 10 12 8 13 -10 9 -17 -5 -20 -3 -14 8 6 11 5 12
-6 2 -7 -7 -17 -13 -22 -13 -4 0 -5 6 -1 13 6 10 4 10 -7 0 -17 -17 -32 -17
-23 0 6 9 5 9 -8 0 -8 -7 -18 -10 -21 -6 -4 3 -7 0 -7 -7 0 -9 -5 -7 -15 6 -8
10 -15 14 -15 9 0 -6 -9 -11 -20 -12 -13 -1 -18 2 -13 10 4 7 0 6 -10 -2 -14
-11 -17 -11 -17 0 0 9 -3 10 -8 4 -4 -6 -14 -10 -22 -10 -8 1 -20 -3 -27 -7
-7 -6 -15 -3 -22 9 -6 10 -11 13 -11 7 0 -13 -30 -15 -30 -2 0 5 -7 2 -16 -7
-15 -14 -17 -14 -30 2 -7 10 -14 13 -14 8 0 -6 -9 -11 -20 -12 -13 -1 -18 2
-13 10 4 7 0 6 -10 -2 -14 -11 -17 -11 -17 0 0 9 -3 10 -8 4 -4 -6 -14 -10
-22 -10 -8 1 -20 -3 -27 -7 -7 -6 -15 -3 -22 9 -6 10 -11 13 -11 7 0 -13 -30
-15 -30 -2 0 5 -7 2 -16 -7 -15 -14 -17 -14 -30 2 -7 10 -14 13 -14 8 0 -6 -9
-11 -20 -12 -13 -1 -18 2 -13 10 4 7 0 6 -10 -2 -14 -11 -17 -11 -17 0 0 9 -3
10 -8 4 -4 -6 -14 -10 -22 -10 -8 1 -20 -3 -27 -7 -7 -6 -15 -3 -22 9 -6 10
-11 13 -11 7 0 -13 -30 -15 -30 -2 0 5 -7 2 -16 -7 -15 -14 -17 -14 -30 2 -7
10 -14 13 -14 8 0 -6 -9 -11 -20 -12 -13 -1 -18 2 -13 10 4 7 0 6 -10 -2 -14
-11 -17 -11 -17 0 0 9 -3 10 -8 4 -4 -6 -14 -10 -22 -10 -8 1 -20 -3 -27 -7
-7 -6 -15 -3 -22 9 -6 10 -11 13 -11 7 0 -13 -30 -15 -30 -2 0 5 -7 2 -16 -7
-15 -14 -17 -14 -30 2 -7 10 -14 13 -14 8 0 -6 -9 -11 -20 -12 -13 -1 -18 2
-13 10 4 7 0 6 -10 -2 -14 -11 -17 -11 -17 0 0 9 -3 10 -8 4 -4 -6 -14 -10
-22 -10 -8 1 -20 -3 -27 -7 -7 -6 -15 -3 -22 9 -6 10 -11 13 -11 7 0 -13 -30
-15 -30 -2 0 5 -7 2 -16 -7 -15 -14 -17 -14 -30 2 -7 10 -14 13 -14 8 0 -6 -9
-11 -20 -12 -13 -1 -18 2 -14 10 5 8 3 8 -7 0 -7 -7 -17 -13 -22 -13 -4 0 -5
6 -1 13 6 10 4 10 -7 0 -16 -16 -33 -17 -23 -1 5 7 3 8 -7 2 -24 -14 -51 -16
-43 -2 6 10 4 11 -7 1 -16 -16 -33 -17 -23 -1 5 7 3 8 -7 2 -24 -14 -51 -16
-43 -2 6 10 4 11 -7 1 -16 -16 -33 -17 -23 -1 5 7 3 8 -7 2 -24 -14 -51 -16
-43 -2 6 10 4 11 -7 1 -16 -16 -33 -17 -23 -1 5 7 3 8 -7 2 -24 -14 -51 -16
-43 -2 6 10 4 11 -7 1 -16 -16 -33 -17 -23 -1 5 7 3 8 -7 2 -24 -14 -51 -16
-43 -2 6 10 4 11 -7 1 -16 -16 -33 -17 -23 -1 5 7 3 8 -7 2 -24 -14 -51 -16
-43 -2 6 10 4 11 -7 1 -16 -16 -33 -17 -23 -1 5 7 3 8 -7 2 -24 -14 -51 -16
-43 -2 6 10 4 11 -7 1 -16 -16 -33 -17 -23 -1 5 8 3 8 -7 2 -8 -5 -25 -9 -39
-10 -33 0 -52 -12 -44 -26 13 -21 10 -69 -4 -63 -7 3 -10 0 -7 -5 3 -6 14 -10
23 -10 13 0 13 -2 -4 -16 -10 -8 -13 -13 -7 -9 7 3 13 1 13 -4 0 -6 -6 -11
-12 -11 -9 0 -8 -4 2 -10 11 -7 11 -10 2 -10 -7 0 -10 -5 -6 -11 10 -16 15
-79 6 -79 -4 0 -7 -11 -7 -24 0 -15 5 -22 13 -19 8 4 10 0 6 -11 -3 -9 -10
-13 -15 -10 -5 3 -6 -2 -3 -10 5 -14 -14 -16 -165 -16 l-171 0 0 347 c0 190 3
343 6 340 4 -3 15 -2 26 4 14 7 23 7 33 -1 7 -6 16 -7 19 -2 7 12 36 9 66 -8
22 -11 23 -11 13 1 -10 12 -8 15 8 15 10 0 19 -4 19 -9 0 -6 5 -6 13 -1 17 13
37 11 67 -6 22 -12 24 -11 13 2 -11 12 -9 14 10 13 12 -2 21 -8 19 -14 -1 -7
2 -10 8 -6 6 3 8 11 5 16 -4 5 1 9 9 9 19 0 20 5 5 32 -8 15 -8 19 0 14 6 -4
11 0 11 9 0 9 -4 14 -8 11 -4 -2 -8 4 -8 15 0 10 4 19 8 19 4 0 8 -5 8 -12 0
-6 3 -8 6 -5 4 4 2 12 -3 19 -13 17 -23 69 -12 62 12 -7 11 3 -1 27 -8 13 -7
19 0 19 7 0 8 6 2 17 -5 10 -6 29 -2 43 4 14 3 35 -1 47 -5 14 -5 23 1 23 6 0
9 6 8 12 -2 7 4 11 12 10 41 -10 50 -10 45 -2 -3 5 -1 11 5 15 5 3 10 1 10 -5
0 -7 12 -9 30 -6 17 2 30 0 30 -6 0 -6 12 -3 26 7 15 9 23 12 19 6 -8 -14 31
-11 54 3 10 7 12 6 6 -4 -6 -10 -3 -12 12 -8 11 3 29 1 39 -5 17 -10 18 -9 4
8 -14 17 -14 18 8 6 14 -7 22 -8 22 -1 0 5 5 10 11 10 5 0 7 -5 3 -12 -5 -7
-3 -8 5 -4 9 6 8 13 -6 29 -10 11 -12 17 -5 13 15 -9 16 16 1 31 -8 8 -7 13 2
18 8 6 10 4 4 -5 -6 -9 -4 -11 4 -6 9 6 8 12 -4 26 -12 14 -13 20 -4 26 8 5
10 3 4 -6 -6 -9 -4 -11 4 -6 9 6 8 12 -4 26 -12 14 -13 20 -4 26 8 5 10 3 4
-6 -5 -8 -4 -11 3 -6 15 9 3 38 -12 29 -6 -3 -2 4 9 17 11 13 15 20 8 17 -14
-9 -15 100 -1 123 8 12 8 12 4 -3 -5 -16 -4 -16 21 0 15 10 24 12 20 6 -5 -9
-2 -13 8 -13 10 0 13 5 9 12 -5 7 -3 8 7 2 20 -12 63 -12 71 1 5 6 8 5 8 -4 0
-11 3 -11 17 0 11 10 14 10 9 1 -8 -14 3 -16 24 -2 9 6 19 5 29 -3 17 -15 15
-15 34 1 13 11 17 10 26 -5 6 -10 11 -13 11 -6 0 6 9 15 20 18 11 4 18 11 15
16 -4 5 0 9 7 9 10 0 9 3 -2 11 -12 9 -13 12 -1 16 11 5 11 7 0 14 -12 8 -11
11 1 19 12 8 12 10 1 10 -10 0 -11 3 -2 14 9 11 9 16 0 21 -8 6 -7 10 2 16 11
7 11 9 1 9 -7 0 -10 4 -7 10 3 6 0 10 -7 10 -8 0 -6 5 5 11 14 8 16 14 6 25
-9 11 -8 14 2 15 8 0 5 4 -6 9 -11 5 -14 9 -7 9 7 1 10 6 7 11 -3 6 0 10 7 10
10 0 9 3 -1 9 -13 8 -13 12 0 27 11 14 11 16 0 10 -9 -6 -12 -5 -9 5 3 8 13
13 23 11 9 -2 14 1 11 6 -5 9 14 9 34 2 3 -1 10 -1 15 0 38 8 45 8 51 -2 4 -6
10 -5 15 3 6 10 9 11 9 2 0 -7 5 -13 11 -13 5 0 8 3 6 8 -3 4 8 7 23 7 16 1
26 -3 24 -7 -7 -11 4 -10 26 2 13 7 21 7 26 -1 4 -8 9 -7 15 2 6 10 9 11 9 2
0 -7 5 -13 11 -13 5 0 8 4 5 8 -2 4 4 8 15 8 10 0 19 -3 19 -6 0 -15 30 -5 32
9 4 42 4 58 -3 83 -6 21 -4 25 7 21 10 -4 12 0 8 11 -3 9 -9 14 -13 12 -4 -3
-7 4 -7 15 0 13 5 18 15 14 11 -4 11 -3 2 9 -7 8 -10 20 -7 25 4 5 1 13 -5 17
-8 5 -7 9 2 14 10 7 10 12 0 23 -9 12 -9 16 0 19 9 3 9 9 -1 27 -10 19 -10 22
1 16 9 -6 11 -3 6 8 -3 9 -2 19 3 22 6 4 10 0 10 -7 0 -9 3 -9 10 2 8 13 10
13 10 1 0 -12 3 -12 12 -3 8 8 15 8 24 1 9 -7 19 -7 35 1 14 8 19 8 15 1 -5
-8 0 -8 18 -1 18 6 26 6 26 -1 0 -6 6 -7 13 -2 18 11 37 12 37 2 0 -5 5 -9 11
-9 5 0 7 6 3 13 -6 9 -4 9 8 -1 13 -10 18 -10 24 -1 5 8 3 9 -6 4 -9 -6 -11
-4 -5 5 6 10 11 10 20 -3 14 -20 30 -23 19 -4 -6 9 -4 9 8 -1 11 -9 18 -10 23
-2 3 6 11 8 16 5 5 -3 6 1 3 9 -4 10 -1 16 7 16 11 0 11 2 0 9 -13 8 -13 12 0
27 12 16 12 17 -3 11 -10 -3 -18 -2 -18 3 0 6 4 10 10 10 5 0 6 7 3 17 -5 12
-3 14 8 8 12 -8 12 -6 0 8 -9 12 -10 17 -2 17 7 0 9 5 6 10 -4 6 -11 8 -16 5
-16 -11 -10 7 9 22 9 8 12 12 6 9 -6 -3 -10 11 -11 35 -1 26 3 37 11 32 6 -3
6 -1 -1 8 -16 16 -17 43 -2 33 7 -4 6 3 -2 17 -16 30 -19 60 -5 52 6 -4 5 1
-3 11 -11 13 -16 14 -23 4 -6 -10 -10 -10 -18 2 -5 8 -10 10 -10 4 0 -12 -29
-12 -49 1 -9 5 -12 4 -7 -3 4 -7 -1 -10 -14 -9 -11 1 -20 6 -20 11 0 5 -7 1
-16 -10 -8 -10 -13 -14 -10 -7 4 6 2 14 -4 18 -5 3 -10 1 -10 -6 0 -10 -3 -10
-12 -1 -8 8 -15 9 -25 1 -9 -9 -13 -8 -13 0 0 7 -5 9 -10 6 -6 -4 -8 -11 -5
-16 3 -5 -1 -6 -9 -3 -9 3 -13 11 -9 18 3 6 1 6 -8 -1 -7 -7 -17 -13 -22 -13
-4 0 -5 6 -1 13 5 9 4 9 -6 0 -11 -10 -17 -8 -32 10 -17 19 -18 23 -3 33 14
11 14 12 -2 19 -12 5 -14 9 -5 12 6 3 12 9 12 14 0 6 -5 7 -11 3 -8 -4 -8 0 0
15 9 16 9 21 -1 21 -8 1 -5 7 6 15 18 14 15 20 -8 16 -5 -1 -4 5 4 13 8 10 9
16 2 16 -6 0 -9 7 -6 15 4 8 10 12 16 9 5 -3 2 11 -6 30 -8 20 -11 34 -7 31 5
-2 12 2 15 11 4 10 2 13 -6 8 -7 -5 -9 0 -6 14 4 12 1 25 -5 29 -16 10 -47 11
-41 2 2 -4 -5 -7 -16 -6 -11 1 -20 6 -20 12 0 5 -5 3 -10 -5 -6 -10 -10 -11
-10 -2 0 6 -5 12 -11 12 -5 0 -8 -4 -5 -8 2 -4 -4 -8 -15 -8 -10 0 -19 4 -19
9 0 5 -7 3 -17 -4 -19 -16 -22 -16 -35 3 -8 10 -11 10 -15 0 -2 -6 -10 -9 -16
-5 -19 12 -39 12 -59 2 -12 -7 -18 -6 -18 1 0 6 -5 8 -12 4 -22 -14 -55 -13
-55 1 0 8 5 11 11 8 6 -3 5 0 -1 7 -10 11 -10 17 0 29 9 12 9 13 0 7 -17 -9
-17 6 0 23 10 11 9 12 -1 6 -16 -8 -13 26 3 37 6 5 5 8 -4 8 -10 0 -11 3 -2
14 8 10 9 16 1 21 -14 9 -13 28 3 19 10 -6 10 -4 0 7 -7 7 -13 17 -13 22 0 4
6 5 13 1 9 -6 9 -4 -1 7 -15 16 -16 33 -1 23 6 -3 3 6 -7 22 -14 22 -15 26 -3
17 13 -11 15 -10 14 5 0 9 -4 23 -8 29 -4 6 -1 14 5 16 7 3 4 6 -6 6 -19 1
-19 1 -1 14 14 11 15 16 5 22 -10 6 -9 9 1 16 11 7 9 9 -5 9 -19 0 -19 0 -1
13 14 11 15 16 5 22 -10 6 -9 9 1 16 11 7 9 9 -5 9 -19 0 -19 0 -1 13 14 11
15 16 5 22 -10 6 -9 9 1 16 11 7 9 9 -5 9 -19 0 -19 0 -1 13 14 11 15 16 5 22
-10 6 -9 9 1 16 11 7 9 9 -5 9 -19 0 -19 0 -1 13 14 11 15 16 5 22 -10 6 -9 9
1 16 11 7 9 9 -5 9 -19 0 -19 0 -1 13 14 11 15 16 5 22 -10 6 -9 9 1 16 11 7
9 9 -5 9 -19 0 -19 0 -1 13 14 11 15 16 5 22 -10 6 -9 9 1 16 11 7 9 9 -5 9
-19 0 -19 0 -1 13 14 11 15 16 5 22 -10 6 -9 9 1 16 11 7 9 9 -5 9 -19 0 -19
0 -1 13 14 11 15 16 5 22 -10 6 -9 9 1 16 11 7 9 9 -5 9 -19 0 -19 0 -1 13 14
11 15 16 5 22 -10 6 -9 9 1 16 11 7 9 9 -5 9 -19 0 -19 0 -1 13 14 11 15 16 5
22 -10 6 -9 9 1 16 11 7 9 9 -5 9 -19 0 -19 0 -1 13 14 11 15 16 5 22 -10 6
-9 9 1 16 11 7 9 9 -5 9 -19 0 -19 0 -1 13 14 11 15 16 5 22 -10 6 -9 9 1 16
11 7 9 9 -5 9 -19 0 -19 0 -1 13 14 11 15 16 5 22 -10 6 -9 9 1 16 11 7 9 9
-5 9 -19 0 -19 0 -1 13 14 11 15 16 5 22 -10 6 -9 9 1 16 11 7 9 9 -6 9 -17 0
-17 2 -5 10 8 5 11 10 5 10 -5 0 -3 5 5 10 12 8 12 10 1 10 -10 0 -11 3 -2 14
9 10 9 16 1 21 -8 5 -8 10 0 20 8 10 7 16 -7 24 -17 10 -17 10 2 11 11 0 16 3
10 8 -13 9 -13 42 -1 61 6 9 5 12 -2 7 -7 -4 -10 1 -9 14 1 11 6 20 12 20 5 0
3 5 -5 11 -12 9 -13 12 -1 16 11 5 11 7 0 14 -12 8 -11 11 1 19 8 5 10 10 4
10 -14 0 -14 31 0 49 8 11 8 13 -1 7 -7 -4 -13 -3 -13 3 0 5 5 13 10 16 8 5 7
12 -2 23 -11 12 -11 16 1 20 11 4 11 6 0 13 -12 8 -11 11 1 19 8 5 10 10 4 10
-14 0 -14 31 0 49 8 11 8 13 -1 8 -8 -5 -11 0 -10 13 1 11 6 20 12 20 5 0 3 5
-5 11 -12 9 -13 12 -1 16 11 5 11 7 0 14 -12 8 -11 11 1 19 8 5 10 10 4 10
-14 0 -14 31 0 49 8 11 8 13 -1 7 -7 -4 -13 -3 -13 3 0 5 5 13 10 16 8 5 7 12
-2 23 -11 12 -11 16 1 20 11 4 11 6 0 13 -12 8 -11 11 1 19 9 5 10 10 3 10
-13 0 -12 18 1 39 6 10 5 12 -2 7 -16 -10 -15 7 1 23 7 9 7 11 1 8 -7 -4 -15
0 -18 9 -3 8 -2 12 3 9 5 -3 12 -1 16 5 3 5 1 10 -6 10 -9 0 -9 3 0 14 10 11
8 17 -6 25 -17 10 -17 10 2 11 15 0 17 2 6 9 -10 7 -11 10 -1 16 10 6 9 11 -5
22 -18 13 -18 13 1 13 14 0 16 2 5 9 -10 7 -11 10 -1 16 10 6 9 11 -5 22 -18
13 -18 13 1 13 14 0 16 2 5 9 -10 7 -11 10 -1 16 10 6 9 11 -5 22 -18 13 -18
13 1 13 14 0 16 2 5 9 -10 7 -11 10 -1 16 10 6 9 11 -5 22 -18 13 -18 13 1 13
14 0 16 2 5 9 -10 7 -11 10 -1 16 10 6 9 11 -5 22 -18 13 -18 13 1 13 14 0 16
2 5 9 -10 7 -11 10 -1 16 10 6 9 11 -5 22 -18 13 -18 13 1 13 14 0 16 2 5 9
-10 7 -11 10 -1 16 10 6 9 11 -5 22 -18 13 -18 13 1 13 14 0 16 2 5 9 -10 7
-11 10 -1 16 10 6 9 11 -5 22 -18 13 -18 13 1 13 14 0 16 2 5 9 -7 5 -9 11 -4
14 11 7 11 37 -1 55 -4 7 -2 12 6 12 9 0 9 3 -2 10 -13 9 -13 11 0 20 13 8 13
10 1 10 -12 0 -12 3 -3 12 8 8 9 15 1 25 -9 10 -8 13 2 13 12 0 12 2 0 9 -9 6
-10 10 -2 16 9 5 9 10 0 21 -9 11 -8 14 2 14 11 0 11 2 -1 10 -8 5 -10 10 -5
10 6 0 3 5 -5 10 -12 8 -12 10 5 10 15 0 17 3 7 9 -17 11 -17 21 0 32 10 7 8
9 -7 9 -19 1 -19 1 -2 11 14 8 16 14 6 25 -9 11 -8 14 2 15 8 0 5 4 -6 9 -11
5 -14 9 -7 9 7 1 10 6 7 11 -3 6 -1 10 5 10 7 0 5 7 -4 16 -18 17 -21 28 -6
19 9 -6 14 8 11 28 -1 5 3 6 9 2 6 -3 7 -11 4 -17 -4 -6 3 -4 16 5 18 13 27
14 38 5 10 -9 15 -9 22 1 4 8 10 9 13 3 4 -5 28 -8 54 -7 27 1 54 -3 62 -9 11
-8 13 -8 7 2 -5 8 1 12 18 12 14 0 26 -5 26 -11 0 -6 7 -3 16 6 12 12 19 13
30 4 10 -8 14 -8 14 0 0 6 4 11 10 11 5 0 6 -8 3 -17 -6 -15 -4 -16 8 -6 9 8
20 9 29 3 12 -8 12 -10 2 -10 -8 0 -12 -6 -9 -12 2 -7 -3 -22 -12 -33 -15 -18
-15 -19 0 -7 15 11 17 9 14 -26 -1 -22 -6 -45 -10 -52 -5 -9 -4 -11 3 -6 8 5
10 -2 6 -24 -5 -22 -3 -30 7 -30 10 -1 9 -3 -3 -10 -13 -8 -15 -16 -7 -43 11
-40 11 -40 -2 -31 -8 5 -8 1 0 -13 7 -14 7 -24 -2 -33 -9 -10 -9 -11 1 -6 7 5
12 1 12 -9 0 -9 -4 -14 -8 -11 -4 2 -8 -4 -8 -14 0 -10 3 -17 7 -14 4 2 10 -3
13 -12 3 -8 2 -12 -4 -9 -6 3 -10 -3 -10 -14 0 -12 5 -21 12 -21 6 0 3 -7 -8
-15 -11 -8 -14 -14 -6 -15 10 0 10 -5 1 -21 -8 -15 -8 -19 0 -15 6 4 11 2 11
-3 0 -6 -5 -11 -10 -11 -7 0 -7 -6 0 -19 13 -25 13 -34 0 -26 -5 3 -2 -11 6
-31 8 -19 10 -33 5 -29 -6 3 -11 3 -12 -2 0 -4 -2 -18 -3 -30 -1 -12 0 -22 3
-21 20 2 22 -4 5 -17 -11 -8 -14 -14 -6 -15 10 0 10 -5 1 -21 -6 -12 -7 -19
-2 -16 10 7 9 -76 -2 -93 -3 -5 -1 -10 6 -10 8 0 7 -5 -2 -17 -8 -10 -9 -14
-2 -10 6 4 14 3 17 -2 3 -5 -2 -12 -11 -15 -15 -6 -15 -8 -3 -16 13 -9 13 -10
0 -10 -13 0 -13 -1 0 -11 12 -8 12 -12 2 -16 -10 -4 -9 -9 5 -19 17 -13 17
-14 -1 -7 -15 5 -17 3 -10 -8 4 -8 7 -25 5 -38 -1 -13 1 -21 7 -17 5 3 12 -4
15 -16 6 -21 7 -21 26 -4 12 11 21 14 26 6 3 -5 11 -8 16 -5 5 4 9 0 9 -7 0
-9 3 -9 10 2 8 12 13 13 29 3 16 -10 22 -9 31 3 10 11 16 12 26 3 8 -6 14 -8
14 -3 0 5 5 2 10 -6 5 -8 10 -10 10 -3 0 6 15 11 35 11 24 0 33 -4 28 -11 -3
-7 4 -3 16 8 12 11 22 15 21 10 -5 -22 1 -27 17 -14 15 12 16 12 8 -1 -13 -20
-13 -32 -3 -47 6 -7 4 -14 -3 -19 -8 -5 -9 -3 -4 6 6 9 4 11 -4 6 -9 -6 -9
-12 3 -25 19 -20 20 -31 5 -31 -5 0 -7 5 -3 12 4 7 3 8 -5 4 -9 -6 -8 -14 4
-33 10 -14 12 -22 5 -18 -10 6 -11 1 -6 -19 5 -21 4 -26 -6 -20 -7 4 -4 -3 7
-16 11 -13 15 -20 9 -17 -7 4 -11 -3 -11 -18 0 -15 4 -22 11 -19 6 3 3 -1 -6
-9 -18 -14 -24 -29 -10 -24 4 1 7 -2 7 -8 0 -5 -4 -9 -10 -7 -5 2 -1 -6 10
-17 14 -17 16 -24 7 -33 -16 -16 -16 -41 1 -32 9 6 9 4 1 -7 -18 -24 -24 -48
-12 -55 7 -5 8 -2 3 6 -5 9 -4 11 4 6 9 -6 9 -11 0 -22 -9 -11 -8 -18 2 -31
10 -11 10 -14 2 -9 -7 4 -13 2 -13 -3 0 -6 6 -11 13 -11 8 0 8 -3 -2 -9 -13
-8 -13 -12 0 -27 9 -12 10 -15 1 -10 -9 6 -11 1 -8 -18 3 -14 8 -31 12 -38 5
-8 0 -7 -11 2 -17 14 -18 14 -6 -7 9 -18 9 -23 -1 -23 -10 0 -10 -2 1 -9 8 -5
10 -14 6 -22 -6 -9 -3 -11 8 -6 10 3 17 3 17 -2 0 -9 31 -8 48 3 7 4 12 2 12
-3 0 -7 7 -7 21 1 17 10 23 10 26 1 3 -9 10 -10 24 -3 10 6 19 8 19 4 0 -3 6
-1 14 5 11 9 16 9 22 0 4 -8 3 -9 -4 -5 -7 4 -12 3 -12 -3 0 -11 39 -9 58 3 7
4 12 3 12 -2 0 -10 36 -9 46 1 12 12 26 8 18 -5 -5 -8 -2 -9 11 -4 15 5 16 4
6 -8 -8 -10 -9 -16 -1 -21 7 -4 7 -13 -1 -27 -9 -16 -8 -23 2 -29 12 -7 12 -9
0 -9 -8 0 -11 -3 -8 -7 4 -3 2 -12 -4 -19 -9 -11 -7 -15 6 -20 13 -5 14 -9 3
-15 -10 -7 -10 -9 1 -9 11 0 9 -4 -5 -15 -18 -15 -18 -15 0 -8 14 5 17 3 11
-6 -13 -21 -14 -71 -1 -71 7 0 7 -3 1 -8 -13 -9 -20 -46 -7 -38 5 3 9 -1 9 -9
0 -8 -4 -12 -9 -9 -12 8 -6 -29 7 -38 5 -4 15 -2 21 3 8 7 15 6 20 -2 5 -8 3
-9 -6 -4 -9 6 -11 4 -5 -4 5 -9 10 -10 18 -2 7 7 15 7 26 -2 12 -10 14 -9 8 7
-7 18 -6 18 19 1 23 -14 26 -15 21 -2 -6 15 15 18 29 5 3 -4 13 -4 22 -1 11 5
13 3 7 -8 -7 -11 -6 -12 6 -3 20 15 59 15 59 1 0 -8 3 -8 8 1 7 10 16 10 38 2
27 -9 28 -9 10 5 -25 19 -6 20 20 1 20 -15 25 -46 9 -58 -6 -5 -4 -8 5 -8 13
0 13 -1 0 -10 -13 -9 -13 -11 0 -20 13 -9 13 -10 0 -10 -13 0 -13 -1 0 -10 12
-8 12 -10 1 -10 -11 0 -11 -3 -1 -15 10 -12 10 -15 -1 -16 -11 0 -11 -2 -1 -6
10 -4 10 -8 0 -21 -11 -13 -11 -14 2 -7 13 7 13 6 2 -7 -9 -11 -10 -18 -2 -23
6 -3 7 -12 3 -18 -4 -6 -8 -22 -9 -35 -2 -21 -1 -22 14 -10 13 9 12 7 -2 -10
-11 -12 -14 -22 -8 -22 7 0 12 -5 12 -11 0 -5 -5 -7 -12 -3 -6 4 -8 3 -4 -4 3
-6 18 -9 32 -6 18 3 23 1 18 -7 -5 -8 -3 -9 7 -4 17 11 49 14 54 5 3 -6 50 -5
50 0 0 1 19 3 42 5 24 1 41 0 39 -4 -2 -3 9 -6 25 -7 16 -1 29 2 29 5 0 4 9 7
20 8 13 1 18 -2 14 -9 -5 -7 -2 -8 7 -2 20 12 38 14 45 3 3 -6 11 -5 20 2 11
9 18 9 26 1 9 -9 15 -9 26 0 10 9 16 8 23 -3 7 -12 9 -12 9 1 0 13 1 13 10 0
8 -12 10 -12 10 5 1 19 1 19 11 2 6 -10 15 -14 22 -10 16 9 47 11 52 3 4 -6
45 -5 53 0 8 7 29 5 41 -4 11 -8 13 -8 8 0 -5 9 10 11 43 5 2 -1 -1 -6 -8 -13
-8 -8 -9 -15 -1 -25 9 -10 8 -13 -2 -13 -11 0 -11 -2 1 -10 12 -8 12 -10 1
-10 -11 0 -11 -3 0 -17 10 -11 10 -14 2 -9 -8 4 -13 1 -13 -9 0 -10 5 -13 13
-9 9 6 9 5 0 -7 -14 -18 -14 -30 0 -48 9 -12 9 -13 0 -7 -7 4 -13 3 -13 -3 0
-5 5 -13 10 -16 7 -4 7 -13 0 -24 -6 -12 -5 -22 3 -31 9 -10 9 -11 0 -6 -16 9
-17 -10 -3 -19 8 -5 7 -11 -1 -21 -9 -11 -8 -14 2 -14 11 0 11 -2 1 -9 -10 -6
-9 -11 4 -22 12 -9 15 -10 10 -1 -4 6 -2 12 3 12 6 0 11 -5 11 -11 0 -8 5 -8
15 1 12 10 15 10 16 -1 0 -11 2 -11 6 -1 4 10 8 10 21 0 9 -7 13 -8 9 -2 -3 6
0 11 8 11 8 0 12 -4 9 -9 -3 -4 0 -8 5 -8 6 0 11 5 11 11 0 8 6 7 17 -2 11
-10 14 -10 9 -1 -9 15 6 16 22 0 9 -9 12 -9 12 0 0 7 5 12 11 12 5 0 8 -4 4
-9 -6 -10 27 -7 45 4 6 3 10 0 11 -7 0 -10 2 -10 6 1 5 11 7 11 14 0 7 -12 9
-12 9 0 0 11 3 11 17 0 11 -10 14 -10 9 -1 -9 15 6 16 22 0 9 -9 12 -9 12 0 0
7 5 12 11 12 5 0 8 -4 4 -9 -6 -10 27 -7 45 4 6 3 10 1 10 -5 0 -7 7 -5 16 4
19 19 31 21 15 3 -8 -11 -6 -13 9 -12 11 1 23 4 26 8 4 3 15 2 25 -4 14 -7 19
-6 19 2 0 8 5 7 17 -2 11 -10 14 -10 9 -1 -9 15 6 16 22 0 9 -9 12 -9 12 1 0
7 5 9 13 4 16 -10 39 -10 55 1 7 5 12 4 12 -3 0 -7 5 -9 13 -5 7 5 6 0 -3 -11
-14 -17 -13 -18 4 -12 16 6 17 5 6 -8 -7 -8 -9 -15 -4 -15 5 0 2 -5 -6 -10
-13 -9 -13 -10 0 -10 13 0 13 -1 0 -10 -12 -8 -12 -10 -1 -10 11 0 11 -3 0
-16 -10 -13 -10 -17 2 -25 9 -6 10 -12 4 -16 -12 -9 -13 -33 -2 -50 5 -8 3
-13 -5 -14 -10 0 -11 -2 0 -6 9 -4 10 -8 2 -18 -8 -9 -8 -15 0 -20 5 -3 10
-11 10 -16 0 -6 -4 -8 -9 -5 -11 7 -9 -13 2 -31 5 -8 3 -13 -3 -13 -7 0 -6 -5
2 -14 9 -10 15 -11 20 -2 6 8 8 8 8 -1 0 -7 5 -13 11 -13 5 0 8 4 5 8 -3 5 1
9 9 9 8 0 12 -5 8 -10 -3 -5 4 -4 16 2 14 8 21 8 21 1 0 -7 6 -7 21 1 15 8 24
8 32 0 7 -7 14 -7 24 0 10 9 13 8 13 -1 0 -10 3 -10 15 0 12 10 15 10 15 0 0
-9 4 -9 17 1 15 12 16 12 8 -1 -8 -13 -7 -13 8 -1 11 9 17 10 17 2 0 -6 5 -11
11 -11 5 0 7 5 3 11 -4 7 1 7 16 -1 31 -17 41 -3 45 64 2 40 0 54 -8 49 -9 -5
-9 -3 -1 8 12 17 12 108 0 128 -6 9 -5 12 1 8 6 -4 13 0 16 8 4 9 1 12 -9 8
-12 -4 -13 -1 -4 22 13 34 13 38 -2 29 -7 -5 -8 -3 -2 7 13 22 16 51 3 43 -8
-4 -8 -1 -1 13 12 21 10 82 -3 103 -5 8 -4 11 2 7 6 -4 13 0 16 8 4 9 1 12 -9
8 -12 -4 -13 -1 -4 22 13 34 13 38 -2 29 -7 -5 -8 -3 -2 7 13 22 16 51 3 43
-8 -4 -8 -1 -1 13 12 21 10 82 -3 103 -5 8 -4 11 2 7 6 -4 13 0 16 8 4 9 1 12
-9 8 -12 -4 -13 -1 -4 22 13 34 13 38 -2 29 -7 -5 -8 -3 -2 7 13 22 16 51 3
43 -8 -4 -8 -1 -1 13 12 21 10 82 -3 103 -5 8 -4 11 2 7 6 -4 13 0 16 8 4 9 1
12 -9 8 -12 -4 -13 -1 -4 22 13 34 13 38 -2 29 -7 -5 -8 -3 -2 7 13 22 16 51
3 43 -8 -4 -8 -1 -1 13 12 21 10 82 -3 103 -5 8 -4 11 2 7 6 -4 13 0 16 8 4 9
1 12 -9 8 -12 -4 -13 -1 -4 22 13 34 13 38 -2 29 -7 -5 -8 -3 -2 7 13 22 16
51 3 43 -8 -4 -8 -1 -1 13 12 21 10 82 -3 103 -5 8 -4 11 2 7 6 -4 13 0 16 8
4 9 1 12 -9 8 -12 -4 -13 -1 -4 22 13 34 13 38 -2 29 -7 -5 -8 -3 -2 7 13 22
16 51 3 43 -8 -4 -8 -1 -1 13 12 21 10 82 -3 103 -5 8 -4 11 2 7 6 -4 13 0 16
8 4 9 1 12 -9 8 -12 -4 -13 -1 -4 22 13 34 13 38 -2 29 -7 -5 -8 -3 -2 7 13
22 16 51 3 43 -8 -4 -8 -1 -1 13 12 21 10 82 -3 103 -5 8 -4 11 2 7 6 -4 13 0
16 8 4 9 1 12 -9 8 -10 -4 -12 0 -8 11 3 9 11 13 18 9 6 -4 3 6 -8 21 -10 16
-13 25 -7 22 6 -4 11 -2 11 3 0 6 -6 11 -12 12 -10 0 -10 2 0 6 14 6 16 33 2
33 -5 0 -10 7 -10 16 0 8 -5 12 -10 9 -6 -4 -8 -11 -5 -16 3 -5 -1 -6 -9 -3
-9 3 -13 11 -9 18 3 6 -4 2 -17 -9 -13 -11 -20 -15 -16 -8 5 9 -4 11 -31 10
-21 -2 -46 1 -55 5 -10 5 -20 4 -24 -4 -5 -7 -3 -8 6 -3 8 5 11 4 6 -3 -9 -15
-38 -3 -29 12 3 6 -4 2 -17 -9 -13 -11 -20 -15 -16 -8 5 9 -7 12 -48 10 -30
-2 -52 1 -50 5 3 4 -1 8 -8 9 -10 0 -10 2 0 6 6 2 12 9 12 14 0 6 -6 7 -12 3
-9 -5 -9 -2 1 9 11 14 11 17 0 17 -11 0 -11 2 1 10 13 9 13 10 0 10 -12 0 -12
2 -1 9 10 6 10 10 1 16 -8 5 -6 12 6 26 14 16 15 19 2 14 -11 -4 -15 0 -14 17
1 13 5 29 9 36 5 7 3 12 -4 12 -8 0 -8 4 1 15 10 12 10 15 -1 15 -8 0 -5 6 7
15 16 13 16 14 1 9 -15 -5 -16 -3 -7 20 7 19 6 26 -3 26 -9 0 -9 2 0 8 9 6 7
11 -7 20 -16 10 -20 10 -20 0 0 -9 -3 -8 -10 2 -6 10 -10 11 -10 3 0 -7 -5
-13 -11 -13 -5 0 -8 3 -6 8 10 14 -78 7 -91 -8 -12 -13 -13 -13 -8 3 3 10 2
15 -4 12 -18 -11 -80 -11 -81 -1 0 6 -3 5 -6 -3 -4 -10 -7 -10 -13 -1 -5 8
-11 7 -24 -5 -9 -9 -16 -12 -16 -7 0 5 -10 12 -22 15 -18 5 -19 8 -8 21 8 11
9 16 1 16 -13 0 -10 22 4 32 6 5 5 8 -4 8 -11 0 -11 3 -1 15 10 12 10 15 0 15
-10 0 -10 3 0 15 10 12 10 15 0 15 -10 0 -10 3 0 15 7 8 8 15 3 15 -10 0 -10
41 1 58 4 7 2 12 -6 12 -9 0 -9 3 2 10 12 8 12 10 1 10 -11 0 -11 3 0 16 10
13 10 17 -2 25 -12 8 -12 10 1 19 13 9 13 11 0 20 -13 9 -13 10 0 10 13 0 13
1 0 10 -13 9 -13 11 0 20 10 6 11 13 5 18 -13 8 -13 22 -1 41 5 8 4 16 -5 22
-12 8 -12 11 1 19 13 9 13 11 0 20 -13 9 -13 10 0 10 13 0 13 1 0 10 -13 9
-13 11 0 20 12 8 13 12 2 19 -8 4 -14 12 -14 16 0 4 6 12 14 16 7 5 8 9 2 9
-11 0 -12 75 -1 86 4 4 -2 13 -13 21 -14 10 -25 11 -39 3 -14 -7 -22 -7 -26 1
-4 6 -13 8 -21 5 -7 -3 -16 0 -20 5 -4 8 -10 7 -17 0 -7 -7 -14 -7 -23 0 -8 7
-14 6 -20 -2 -5 -8 -3 -9 6 -4 9 5 11 4 6 -3 -5 -9 -15 -7 -34 6 -14 9 -23 11
-19 5 5 -7 4 -13 -2 -13 -6 0 -11 6 -11 13 0 9 -2 9 -9 -1 -11 -19 -15 -19
-34 -3 -15 12 -17 11 -17 -5 -1 -17 -1 -18 -10 -2 -6 9 -18 15 -28 13 -13 -2
-18 4 -18 26 -1 16 2 27 6 24 10 -6 7 21 -3 31 -3 4 -2 15 4 25 7 14 6 19 -2
19 -9 0 -9 3 0 14 8 10 9 16 1 21 -7 4 -7 13 1 27 8 15 8 19 0 14 -6 -4 -11
-2 -11 3 0 6 6 11 13 12 9 0 9 2 -1 6 -10 4 -10 8 0 21 11 13 11 14 0 8 -16
-10 -13 25 3 36 6 5 5 8 -4 8 -11 0 -11 3 -1 16 11 12 11 15 -1 12 -8 -2 -13
3 -11 11 2 11 -2 11 -22 -2 -21 -14 -26 -14 -36 -2 -8 9 -19 11 -33 6 -26 -8
-84 -8 -93 1 -3 4 -17 3 -30 -2 -14 -6 -26 -6 -29 1 -4 5 -11 7 -16 3 -17 -10
-139 -10 -140 1 0 5 -3 4 -6 -2 -2 -7 -11 -13 -19 -13 -8 0 -14 6 -15 13 0 10
-2 10 -6 0 -2 -7 -11 -13 -19 -13 -8 0 -14 6 -14 13 0 8 -3 8 -8 1 -12 -18
-40 -23 -52 -9 -8 10 -18 11 -35 5 -15 -6 -27 -6 -30 1 -4 5 -11 6 -17 3 -17
-11 -79 -6 -94 7 -12 10 -13 9 -8 -5 3 -9 11 -16 17 -16 6 0 7 -3 4 -6 -4 -4
-12 -2 -19 3 -22 17 -76 24 -82 10 -3 -9 -7 -8 -15 3 -10 13 -11 13 -11 0 0
-13 -1 -13 -10 0 -6 10 -10 11 -10 3 0 -7 -7 -13 -15 -13 -8 0 -15 5 -15 11 0
5 5 7 12 3 7 -5 8 -3 3 6 -6 10 -11 10 -20 -3 -14 -20 -35 -22 -36 -4 0 10 -2
10 -6 0 -6 -16 -33 -17 -33 -2 0 6 -8 3 -17 -7 -16 -15 -17 -15 -24 2 -4 11
-8 14 -8 7 -1 -15 -38 -5 -45 14 -4 9 -1 12 7 8 6 -4 3 1 -7 9 -20 16 -20 16
0 17 10 0 13 3 7 6 -7 2 -13 9 -13 14 0 6 4 8 8 5 5 -3 9 1 9 9 0 8 -4 12 -8
9 -4 -2 -7 5 -6 16 1 11 6 20 12 20 5 0 4 4 -4 9 -12 8 -12 12 -2 25 9 11 10
16 2 16 -6 0 -11 5 -11 11 0 5 4 8 8 5 5 -3 9 1 9 9 0 8 -4 12 -8 9 -10 -6 -6
47 5 65 6 10 5 12 -2 7 -8 -5 -11 0 -8 16 3 13 5 26 5 31 1 4 8 7 17 7 9 0 12
5 8 13 -4 6 2 3 14 -7 13 -11 22 -14 22 -7 0 9 5 9 21 0 15 -8 19 -8 15 0 -4
6 -2 11 3 11 6 0 11 -6 11 -12 0 -10 2 -10 9 0 7 11 11 11 23 -2 14 -14 16
-13 21 6 5 18 8 19 22 8 13 -11 102 -17 140 -10 6 1 13 2 16 2 10 -2 5 32 -6
40 -6 5 -4 8 5 8 13 0 13 1 0 10 -13 9 -13 10 0 10 13 0 13 1 0 10 -13 9 -13
10 0 10 13 0 13 1 0 10 -13 9 -13 11 0 20 8 5 10 10 4 10 -12 0 -12 29 0 48 4
6 3 12 -2 12 -13 0 -10 33 3 42 6 5 5 8 -4 8 -11 0 -11 3 0 17 10 11 10 14 2
9 -7 -4 -13 -2 -13 3 0 6 5 11 12 11 9 0 9 3 0 12 -14 14 -16 32 -2 23 6 -4 7
1 3 11 -5 14 0 16 35 13 22 -3 38 -1 36 2 -2 4 5 9 17 12 15 4 17 2 10 -6 -7
-9 -2 -12 15 -12 13 0 24 2 24 6 0 7 64 4 77 -4 6 -4 18 -1 26 8 13 13 16 13
21 0 3 -8 10 -15 16 -15 6 0 8 5 5 10 -3 6 1 10 10 10 10 0 14 -5 9 -12 -5
-10 -4 -10 6 -1 9 8 19 9 32 2 13 -7 18 -6 18 2 0 8 4 8 15 -1 9 -7 15 -8 15
-2 0 5 7 13 16 16 13 5 14 3 6 -6 -8 -10 -2 -13 28 -13 21 0 36 3 34 6 -2 4 5
9 17 12 15 4 17 2 10 -6 -7 -9 -2 -12 15 -12 13 0 24 3 24 7 0 9 63 4 79 -6 6
-4 11 -3 11 2 0 6 7 13 16 16 13 5 14 3 6 -6 -8 -10 -5 -13 13 -13 13 0 21 4
18 8 -3 5 1 8 8 6 8 -1 21 -1 29 0 13 1 13 2 0 12 -12 8 -12 12 -2 16 10 4 10
8 0 21 -11 13 -11 15 2 7 12 -6 13 -5 3 6 -7 7 -13 17 -13 22 0 4 6 5 13 1 9
-5 9 -4 0 6 -8 9 -9 19 -3 31 7 11 7 20 0 24 -5 3 -10 11 -10 16 0 6 5 7 12 3
7 -5 8 -3 2 7 -12 20 -14 38 -3 44 4 3 4 16 -1 30 -7 18 -6 25 3 25 8 0 7 4
-3 10 -13 9 -13 11 0 20 13 9 13 10 0 10 -13 0 -13 1 0 10 11 7 11 10 2 10 -8
0 -10 5 -5 13 11 18 12 36 2 43 -14 8 -11 26 4 18 9 -5 9 -4 0 6 -8 9 -9 19
-3 31 7 11 7 20 0 24 -5 3 -10 11 -10 16 0 6 5 7 12 3 7 -5 8 -3 2 7 -12 20
-14 38 -3 44 4 3 4 16 -1 30 -7 18 -6 25 3 25 8 0 7 4 -3 10 -13 9 -13 11 0
20 13 9 13 10 0 10 -13 0 -13 1 0 10 11 7 11 10 2 10 -8 0 -10 5 -5 13 11 18
12 36 2 43 -14 8 -11 26 4 18 9 -5 9 -4 0 6 -8 9 -9 19 -3 31 7 11 7 20 0 24
-5 3 -10 11 -10 16 0 6 5 7 12 3 7 -5 8 -3 2 7 -12 20 -14 38 -3 44 4 3 4 16
-1 30 -7 18 -6 25 3 25 8 0 7 4 -3 10 -13 9 -13 11 0 20 13 9 13 10 0 10 -13
0 -13 1 0 10 11 7 11 10 2 10 -8 0 -10 5 -5 13 11 18 12 36 2 43 -14 8 -11 26
4 18 9 -5 9 -4 0 6 -8 9 -9 19 -3 31 7 11 7 20 0 24 -5 3 -10 11 -10 16 0 6 5
7 12 3 7 -5 8 -3 2 7 -12 20 -14 38 -3 44 4 3 4 16 -1 30 -5 14 -6 25 -1 25
10 0 9 26 -2 36 -4 4 -2 13 4 20 7 8 7 14 -1 19 -8 5 -7 11 2 23 10 12 10 14
1 8 -7 -4 -13 -3 -13 1 0 5 6 15 13 22 6 8 7 11 1 8 -12 -7 -12 29 1 40 4 5 4
2 0 -6 -6 -11 -4 -13 8 -8 9 3 19 1 23 -4 4 -7 10 -7 16 -1 6 6 17 8 26 5 11
-5 13 -3 7 8 -5 9 -1 7 11 -3 19 -16 22 -16 44 -1 13 9 20 11 16 5 -10 -16 16
-15 33 1 11 10 13 10 7 0 -4 -8 -2 -13 6 -13 8 0 20 6 27 13 11 10 13 10 7 0
-4 -8 -2 -13 6 -13 8 0 20 6 27 13 11 10 13 10 7 0 -4 -7 -2 -13 3 -13 6 0 11
6 11 13 0 8 3 9 8 1 4 -6 15 -11 25 -11 9 0 15 3 12 5 -3 3 0 11 6 19 6 7 7
13 2 13 -5 0 -10 7 -10 15 0 8 4 12 9 9 4 -3 8 0 8 5 0 6 -4 11 -8 11 -10 0
-9 30 2 48 4 7 2 12 -6 12 -9 0 -9 3 2 10 12 8 12 10 1 10 -11 0 -11 3 0 17
11 13 11 17 2 20 -7 3 -13 9 -13 14 0 6 6 7 13 3 8 -5 8 -2 -2 9 -9 12 -10 17
-2 17 7 0 9 5 4 13 -10 16 -10 39 1 55 5 8 4 12 -4 12 -10 0 -10 4 1 16 10 13
10 17 -2 25 -12 8 -12 10 1 19 13 9 13 11 0 20 -13 9 -13 10 0 10 13 0 13 1 0
10 -13 9 -13 11 0 20 10 6 11 13 5 18 -13 8 -13 22 -1 41 5 8 4 16 -5 22 -12
8 -12 11 1 19 13 9 13 11 0 20 -13 9 -13 10 0 10 13 0 13 1 0 10 -13 9 -13 11
0 20 12 8 13 12 2 19 -8 4 -14 12 -14 16 0 4 6 12 14 16 7 5 8 9 2 9 -6 0 -10
13 -10 29 0 23 3 27 20 24 18 -4 19 -3 6 7 -12 9 -10 10 13 6 16 -4 27 -2 27
4 0 6 5 8 10 5 6 -4 8 -11 5 -16 -4 -5 -1 -9 4 -9 6 0 11 5 11 10 0 6 5 10 11
10 5 0 7 -6 3 -12 -6 -10 -4 -10 8 0 13 10 17 10 21 0 3 -8 6 -5 6 6 1 19 2
19 14 2 12 -16 14 -16 26 -2 9 10 18 13 25 8 6 -5 25 -12 41 -16 29 -7 29 -7
10 8 -19 15 -18 16 9 6 22 -8 31 -8 38 2 7 13 12 3 8 -17 -1 -5 8 -1 19 9 21
19 23 36 6 48 -6 5 -5 8 4 8 11 0 11 3 0 17 -10 11 -10 14 -1 9 6 -4 12 -2 12
3 0 6 -6 11 -12 12 -10 0 -10 2 0 6 10 4 10 8 1 19 -8 10 -8 14 0 14 6 0 11 5
11 11 0 5 -6 7 -12 3 -9 -5 -9 -2 1 9 11 14 11 17 0 17 -11 0 -11 2 1 10 13 9
13 10 0 10 -12 0 -12 2 -1 9 9 6 10 10 2 16 -9 5 -9 10 0 21 9 11 8 14 -2 14
-8 0 -5 6 7 15 13 10 14 13 3 10 -21 -8 -19 25 5 56 9 13 14 18 11 12 -7 -15
11 -18 19 -4 9 13 47 1 40 -13 -3 -6 2 -2 10 8 9 11 16 15 16 9 0 -12 79 -12
99 1 11 7 13 5 8 -8 -6 -14 -3 -15 13 -6 11 6 20 8 20 4 0 -3 8 0 17 7 9 8 14
9 10 3 -4 -7 0 -15 9 -18 8 -3 13 -2 10 3 -3 5 1 12 10 15 8 3 13 2 9 -3 -3
-5 2 -8 12 -7 11 2 17 14 19 34 2 20 -1 30 -8 26 -7 -4 -7 0 0 13 12 21 10 82
-3 103 -5 8 -4 11 2 7 6 -4 13 0 16 8 4 9 1 12 -9 8 -12 -4 -13 -1 -4 22 13
34 13 38 -2 29 -7 -5 -8 -3 -2 7 13 22 16 51 3 43 -8 -4 -8 -1 -1 13 12 21 10
82 -3 103 -5 8 -4 11 2 7 6 -4 13 0 16 8 4 9 1 12 -9 8 -12 -4 -13 -1 -4 22
13 34 13 38 -2 29 -7 -5 -8 -3 -2 7 13 22 16 51 3 43 -8 -4 -8 -1 -1 13 12 21
10 82 -3 103 -5 8 -4 11 2 7 6 -4 13 0 16 8 4 9 1 12 -9 8 -12 -4 -13 -1 -4
22 13 34 13 38 -2 29 -7 -5 -8 -3 -2 7 13 22 16 51 3 43 -8 -4 -8 -1 -1 13 12
21 10 82 -3 103 -5 8 -4 11 2 7 6 -4 13 0 16 8 4 8 1 12 -6 9 -8 -3 -11 7 -10
28 1 18 2 33 3 33 1 0 3 12 5 28 3 19 0 25 -8 20 -9 -5 -8 -2 0 9 7 8 10 18 7
21 -4 3 156 6 355 6 218 0 359 -4 356 -10z m705 -1983 c0 -3 -4 -8 -10 -11 -5
-3 -10 -1 -10 4 0 6 5 11 10 11 6 0 10 -2 10 -4z m-5 -2806 c3 -5 1 -10 -4
-10 -6 0 -11 5 -11 10 0 6 2 10 4 10 3 0 8 -4 11 -10z"/>
<path d="M9350 11616 c0 -2 7 -7 16 -10 8 -3 12 -2 9 4 -6 10 -25 14 -25 6z"/>
<path d="M10415 9851 c-3 -5 -2 -12 3 -15 5 -3 9 1 9 9 0 17 -3 19 -12 6z"/>
<path d="M6225 9760 c-3 -6 1 -7 9 -4 18 7 21 14 7 14 -6 0 -13 -4 -16 -10z"/>
<path d="M10065 9760 c-3 -6 1 -7 9 -4 18 7 21 14 7 14 -6 0 -13 -4 -16 -10z"/>
<path d="M6870 9409 c0 -5 5 -7 10 -4 6 3 10 8 10 11 0 2 -4 4 -10 4 -5 0 -10
-5 -10 -11z"/>
<path d="M8335 8340 c-3 -5 -1 -10 4 -10 6 0 11 5 11 10 0 6 -2 10 -4 10 -3 0
-8 -4 -11 -10z"/>
<path d="M8670 6259 c0 -5 5 -7 10 -4 6 3 10 8 10 11 0 2 -4 4 -10 4 -5 0 -10
-5 -10 -11z"/>
<path d="M11110 5211 c0 -5 5 -13 10 -16 6 -3 10 -2 10 4 0 5 -4 13 -10 16 -5
3 -10 2 -10 -4z"/>
</g>
</svg>
