<svg xmlns="http://www.w3.org/2000/svg" width="512" height="512" viewBox="0 0 512 512">
  <defs>
    <style>
      .cls-1 {
        fill: #fff;
        fill-rule: evenodd;
      }
    </style>
  </defs>
  <path id="Color_Fill_1" data-name="Color Fill 1" class="cls-1" d="M147,87h20q1-18,2-36l173-1q1.5,18.5,3,37h20q1-18,2-36l94-1q0.5,47,1,94l-37,3v20l36,2q0.5,86.492,1,173l-37,3v20l36,2q0.5,47,1,94l-94,1q-1.5-18.5-3-37H345q-1,18-2,36l-173,1q-1.5-18.5-3-37H147q-1,18-2,36l-94,1-1-94,37-3V345l-36-2L50,170l37-3V147l-36-2L50,51l94-1Q145.5,68.5,147,87ZM68,68v59H86l2-36,39-5V68H68Zm119,0V86H325V68H187Zm198,0V87l37,2q1.5,19,3,38h19V68H385ZM106,106v21h21V106H106Zm81,0v21H325V106H187Zm-40,1v19h20V107H147Zm198,0v20h20V107H345Zm40,0v20h20V107H385ZM146,146v22h22V146H146Zm-39,1v20h19V147H107Zm81,0v20H325V147H188Zm157,0v20h20V147H345Zm40,0v20h20V147H385ZM68,187V325H86V187H68Zm38,0V325h21V187H106Zm81,0V325H325V187H187Zm158,0V325h20V187H345Zm40,0V325h20V187H385Zm40,0V325h19V187H425Zm-278,1V324h20V188H147Zm-1,156v22h22V344H146Zm-39,1v20h19V345H107Zm81,0v20H325V345H188Zm157,0v20h20V345H345Zm40,0v20h20V345H385ZM68,385v59h59V426l-36-2-5-39H68Zm38,0v21h21V385H106Zm81,0v20H325V385H187Zm158,0v20h20V385H345Zm40,0v20h20V385H385Zm40,0q-1,18.5-2,37l-38,3v19h59V385H425Zm-278,1v19h20V386H147Zm40,39v19H325V425H187Z"/>
</svg>
