<svg xmlns="http://www.w3.org/2000/svg" width="512" height="512" viewBox="0 0 512 512">
  <defs>
    <style>
      .cls-1 {
        fill: #fbf7f8;
        fill-rule: evenodd;
      }
    </style>
  </defs>
  <path id="Color_Fill_1" data-name="Color Fill 1" class="cls-1" d="M205,134l277,2q0.5,15.5,1,31l-57,3c-3.067,31.374-77.673,43.914-89,86-14.37,53.394,83.868,35.5,74,115l-2,6-7,3c-49.125,7.14-67.075-15.411-101-25-57.533-16.263-75.317,32.929-139,25l-6-2c-29.882-60.476,44.714-78.281,65-102v-1c-10.34-36.336-89.2-25.463-118-43L21,168c0.381-28.427,147.41-21.791,179-21Q202.5,140.5,205,134Zm15,20q-1,31-2,62l-18,1q-5.5-23.5-11-47-1,27.5-2,55l-18,1q-6-28-12-56l-98,1,81,53,81,9c11.457,5.778,27.315,31.741,20,55-11.828,37.61-66.732,21.948-68,72h33c-1.673-33.39,30.241-71.388,60-60,8.382,15.432-7.381,28.777-15,38h66l-13-37c26.39-14.111,62.1,29.459,61,59h26c-1.424-64.313-167.981-78.858-18-180l-127-9q-1-8.5-2-17H220Z" transform="translate(4 -1.688)"/>
</svg>
