<svg xmlns="http://www.w3.org/2000/svg" width="512" height="512" viewBox="0 0 512 512">
  <defs>
    <style>
      .cls-1 {
        fill: #fff;
        fill-rule: evenodd;
      }
    </style>
  </defs>
  <path id="Color_Fill_1" data-name="Color Fill 1" class="cls-1" d="M170,54l29,2q1.5,31,3,62l29,2q1.5,47,3,94h44q1-46.5,2-93l30-3q1-30.5,2-61l30-3q1-14.5,2-29l47-1,3,30,29,2q1.5,31,3,62l29,2q0.5,119.488,1,239l-30,3v12l29,2q0.5,39.5,1,79l-30,3q-1,14.5-2,29l-111,1-3-30-29-2q-0.5-39.5-1-79l30-3V362l-29-2-3-30H234q-1,14.5-2,29l-30,3v12l29,2q0.5,39.5,1,79l-30,3q-1,14.5-2,29L89,488l-3-30-29-2-1-79,30-3V362l-29-2L56,121l30-3,2-61,30-3q1-14.5,2-29l47-1ZM106,74q-1,30.5-2,61l-30,3V342l29,2q0.5,23.5,1,47l-30,3v44l29,2,3,30h76q1-14.5,2-29l30-3V394l-29-2q-0.5-23.5-1-47l30-3q1-14.5,2-29l79-1,3,30,29,2q0.5,23.5,1,47l-30,3v44l29,2,3,30h76q1-14.5,2-29l30-3V394l-29-2q-0.5-23.5-1-47l30-3V138l-29-2q-1.5-31-3-62l-29-2-3-30H362q-1,14.5-2,29l-30,3q-1,30.5-2,61l-30,3q-1,46.5-2,93l-79,1q-1.5-46.995-3-94l-29-2q-1.5-31-3-62l-29-2-3-30H138q-1,14.5-2,29Z"/>
</svg>
